<svg width="347" height="348" viewBox="0 0 347 348" fill="none" xmlns="http://www.w3.org/2000/svg">
<g clip-path="url(#clip0_17_227)">
<path d="M314.582 101.639C199.296 -72.5345 68.8731 22.8464 18.0725 92.3085L22.2195 273.221C59.1277 324.229 143.692 342.51 181.36 345.275C350.557 306.708 340.673 166.781 314.582 101.639Z" fill="#D9D9D9" stroke="black"/>
<path d="M326.357 195.344C324.548 194.813 322.837 193.979 321.255 192.982L321.114 192.895C312.491 188.302 305.904 181.304 300.997 173.352C288.897 154.47 288.81 131.255 272.127 128.135C270.274 127.648 268.27 127.117 266.342 126.619C259.625 124.799 253.364 120.53 247.417 117.584C242.325 114.691 237.255 114.009 232.066 111.896C223.768 108.256 217.041 106.696 207.161 107.346C200.769 107.563 194.8 107.097 188.409 108.527C179.363 109.979 171.455 108.798 165.096 107.986C161.283 107.487 158.022 107.141 155.357 107.552C151.771 108.007 149.485 110.781 148.695 114.215C148.034 116.284 147.882 119.317 146.42 120.714C143.289 122.957 139.194 123.629 135.684 125.167C132.532 126.142 129.661 127.713 128.404 130.833C125.414 137.354 123.551 141.915 115.556 137.917C108.612 135.502 109.24 143.009 113.259 147.147C115.502 149.91 119.229 151.415 122.619 152.52C124.125 153.116 123.8 154.34 123.183 155.402C122.088 157.222 121.308 159.204 120.463 161.209C118.904 165.564 114.104 173.028 119.868 175.389C121.233 175.909 122.966 176.007 124.342 175.627C132.835 173.331 130.062 156.41 138.186 154.795C142.227 153.788 146.528 156.052 147.622 160.104C148.5 162.639 148.716 165.076 149.03 167.86C149.215 169.16 149.258 170.818 150.504 171.554C154.133 173.19 158.412 167.318 161.564 170.623C174.217 183.817 146.311 214.843 134.612 219.068C131.145 220.606 126.898 221.776 123.128 221.072C120.095 220.422 117.279 218.722 113.996 219.577C103.889 221.072 92.5683 221.787 84.9093 214.302C82.7968 212.352 80.966 209.979 78.6369 208.311C68.3563 201.367 58.379 207.488 47.2101 212.07C42.4652 214.096 37.3628 214.507 32.3254 215.472C27.9164 216.977 23.5939 218.884 19.2174 220.476C18.1232 220.964 17.7007 221.993 17.744 223.131C17.8415 227.561 17.5382 232.111 17.6466 236.553C17.7657 237.625 18.4915 238.275 19.5748 238.557C21.514 239.055 23.1389 239.445 24.8614 239.911C26.3564 240.312 27.9055 240.756 29.4546 241.211C38.6519 243.963 45.0543 246.823 35.0445 245.295C30.3213 244.537 25.9014 243.529 21.3081 242.478C19.7915 242.154 18.1449 241.514 17.6032 242.684C17.2024 243.735 17.3649 245.068 17.3216 246.14C17.3432 246.703 17.4191 247.104 17.6574 247.321C55.0316 255.662 92.0591 255.316 122.283 229.977C123.345 229.132 124.45 228.471 125.707 228.135C132.239 223.705 145.856 217.584 151.425 214.15C151.869 213.857 152.562 213.467 152.064 214.312C143.278 228.081 124.277 231.429 111.71 242.121C108.883 244.623 105.503 246.368 101.993 247.765C77.0228 258.262 50.3517 252.846 24.1681 256.237C22.1856 256.594 20.0948 256.031 19.0982 254.178C18.2965 253.008 17.6141 251.242 17.3216 251.437C16.4116 254.547 17.7766 257.862 18.0366 261.036C18.3182 263.354 17.6466 265.813 18.8382 267.958C96.4573 392.203 308.255 355.121 330.041 198.269C330.355 195.918 328.524 195.95 326.368 195.344H326.357ZM109.024 232.761C101.993 234.343 94.3341 234.592 87.2817 236.304C81.811 237.972 76.5353 241.395 71.2704 243.833C70.7938 244.038 69.4829 244.613 69.0604 244.526C68.2046 244.353 69.5263 242.933 69.8838 242.468C73.4153 238.839 67.5655 241.059 65.8322 241.168C58.6715 242.186 72.7437 237.192 68.4863 235.491C65.973 234.646 60.7623 236.986 60.5348 236.455C60.5348 235.87 61.2714 235.415 61.6722 234.906C62.2031 234.354 63.0698 233.487 62.4631 232.815C59.9282 231.375 56.429 232.263 53.7641 230.93C52.9949 230.475 53.3092 229.598 53.2008 228.905C53.125 228.58 52.67 228.58 51.9333 228.807C50.0808 229.24 42.996 233.097 47.9576 228.601C48.7592 227.756 49.9075 226.771 47.6651 227.226C46.4409 227.453 45.2168 227.161 44.3177 226.326C43.7002 225.774 42.9094 225.633 42.0969 225.828C40.6128 226.218 38.8253 226.532 37.3086 226.305C35.9003 226.186 34.7628 225.276 33.387 225.189C30.2779 225.579 26.0639 227.626 22.9223 228.233C21.9581 228.46 21.2648 228.558 21.2323 228.363C22.4131 226.121 35.0987 222.946 25.7822 222.784C25.013 222.697 23.0523 222.6 23.8756 222.047C27.938 220.271 35.9762 218.126 40.9377 216.88C42.5735 216.555 50.0158 214.507 49.7558 215.656C49.5283 216.089 47.6001 216.977 46.0293 218.072C44.4368 219.177 44.0577 220.119 46.6901 219.437C49.4092 218.927 52.1608 216.761 54.7391 216.761C56.5157 217.032 58.314 217.086 59.8848 216.067C61.2281 215.342 62.6689 214.291 62.3006 213.446C62.1598 212.893 61.3906 212.417 61.8131 211.832C62.3439 210.954 65.0197 210.586 64.1205 209.253C63.8605 208.874 63.7089 208.506 64.1855 208.192C64.998 207.693 66.1138 207.531 67.1105 207.52C71.3679 207.542 76.4595 210.683 78.9727 212.752C79.7419 213.348 80.1427 214.182 78.9511 214.518C76.4269 215.157 73.5995 214.724 71.0971 215.526C69.9054 216.089 69.9163 218.115 70.3929 219.274C70.6746 220.368 74.5203 222.275 72.5812 223.369C71.7904 223.748 70.4687 223.629 70.1546 224.106C70.1112 224.311 70.2087 224.42 70.4037 224.604C71.9312 225.687 73.7837 226.229 75.517 226.933C76.1886 227.41 83.5443 229.11 81.421 230.042C81.0852 230.367 76.9902 230.941 78.1277 231.461C84.6492 232.436 94.659 231.96 101.755 232.306C103.975 232.382 106.229 232.393 108.45 232.566C108.861 232.61 109.089 232.675 109.045 232.75L109.024 232.783V232.761ZM109.63 226.402L109.479 226.435C105.07 227.117 100.585 227.745 96.1323 228.385C94.8865 228.59 93.5324 228.504 92.5141 227.724C89.9033 225.828 84.1943 222.188 81.9302 218.516C81.421 217.519 81.7026 216.782 82.8618 217.465C91.7883 223.64 99.2848 224.387 108.937 225.666C109.544 225.741 110.92 226.066 109.63 226.391V226.402ZM274.781 133.422C282.31 138.773 289.525 157.558 290.121 161.999C290.121 162.379 289.85 162.379 289.622 162.184C288.907 161.718 285.495 156.041 285.376 159.519C285.527 162.14 287.337 167.741 287.813 170.33C287.846 170.558 287.889 170.948 287.651 170.915C280.913 162.379 281.562 150.224 278.302 140.106C277.587 137.82 275.398 135.653 274.77 133.454L274.803 133.433L274.781 133.422ZM68.4863 305.05C88.0292 302.353 109.121 301.66 127.949 295.983C132.781 294.629 136.811 293.34 141.328 291.682C155.552 286.483 164.067 281.25 167.382 279.939C167.934 279.679 169.635 279.528 169.072 280.579C168.118 282.117 162.518 285.551 159.365 287.436C158.141 288.108 155.866 289.635 158.704 289.397C172.376 287.891 188.82 281.575 198.028 270.98C198.7 270.081 200.217 269.117 199.588 271.143C199.188 272.259 198.408 273.32 197.66 274.23C193.099 279.582 185.495 286.103 178.973 289.841C152.183 304.346 100.466 306.21 68.4755 305.05H68.4863ZM98.0281 320.932C141.252 322.037 184.736 316.869 224.45 299.266C225.501 298.941 227.289 298.486 227.982 299.396C190.857 321.473 139.151 332.187 97.909 320.943H98.039L98.0281 320.932ZM246.962 312.514L246.842 312.612C211.819 333.477 164.706 340.496 124.667 330.671C124.472 330.584 124.428 330.53 124.548 330.497C124.786 330.411 125.804 330.465 126.953 330.53C169.451 332.881 205.817 315.255 219.066 311.984C219.857 311.81 221.72 311.55 222.024 312.07C222.11 312.276 221.883 312.569 221.428 312.915C220.453 313.652 218.871 314.454 217.712 315.039C206.576 320.596 192.601 324.409 181.086 328.092C180.446 328.352 173.492 330.367 175.528 330.682C175.907 330.714 176.492 330.703 177.121 330.66C199.155 329.176 236.713 313.359 244.73 311.03C245.867 310.597 249.172 310.738 246.951 312.514H246.962ZM316.824 200.197C280.154 198.269 271.986 175.097 257.459 146.746C257.383 146.746 257.491 147.169 257.697 147.819C257.773 148.036 257.849 148.274 257.925 148.523C265.649 172.638 274.792 193.838 300.954 201.497C301.68 201.735 302.167 201.941 302.232 202.082C302.265 202.179 302.113 202.244 301.81 202.288C298.722 202.418 295.559 202.147 292.461 202.104C290.467 202.017 288.387 202.136 287.802 202.721C286.524 206.003 309.902 209.968 314.062 210.683C314.268 210.716 314.43 210.738 314.538 210.77C314.798 210.813 314.809 210.846 314.517 210.857C314.343 210.878 314.051 210.878 313.693 210.878C308.819 211.041 296.176 210.662 292.645 213.652C292.558 213.814 292.569 213.977 292.645 214.15C293.035 214.887 295.126 215.569 297.855 215.916C302.557 216.587 307.259 216.057 312.025 216.208C314.181 216.338 316.618 216.176 317.983 216.912C318.579 219.74 296.133 219.837 296.599 222.058C300.38 224.615 318.395 222.524 315.936 225.146C314.896 226.218 311.624 226.662 311.245 228.135C311.278 228.742 312.523 228.98 313.043 229.132C316.943 230.042 313.152 237.474 308.374 245.263C307.259 247.039 306.024 249.217 304.496 250.484C302.655 252.022 300.109 252.033 297.953 252.337C292.06 253.236 272.365 257.147 267.794 258.208L266.634 258.815C263.905 259.876 260.99 259.627 258.12 259.963C249.952 260.624 241.762 261.48 233.572 261.859C225.09 261.556 216.911 258.88 208.515 257.612C207.713 257.482 205.72 257.342 205.763 258.1C211.169 266.246 246.734 267.752 257.903 268.705C260.059 268.868 276.265 268.066 271.314 269.085C254.22 271.435 234.731 269.377 217.409 266.625C216.466 266.485 214.711 266.3 214.581 267.438C218.839 277.231 271.379 274.978 283.209 274.555C284.433 274.479 284 274.62 282.852 274.815C262.832 278.271 242.097 276.581 221.861 274.014C220.236 273.689 216.9 273.743 219.142 275.855C225.599 281.651 245.683 280.578 258.293 281.066C260.07 281.12 259.214 281.651 258.033 281.922C254.317 282.832 250.439 283.103 246.745 283.254C240.765 283.373 230.961 282.474 227.657 283.211C226.617 283.428 227.137 284.403 227.657 284.923C234.655 294.727 287.542 281.228 273.709 286.353C269.83 287.653 265.714 288.725 261.608 289.808C259.636 290.534 243.907 293.73 248.457 295.496C254.794 297.381 262.475 294.867 268.476 293.578C273.319 292.322 273.253 293.784 268.855 295.507C263.33 297.738 258.022 301.096 251.847 300.847C240.613 300.674 234.634 294.012 225.447 294.001C211.906 295.669 166.255 319.751 122.76 313.858C121.482 313.706 120.041 313.338 121.417 313.045C150.287 309.438 180.934 306.134 206.077 291.574C207.107 290.978 207.919 290.155 206.24 290.252C202.394 290.837 198.83 292.397 195.147 293.676C184.465 298.312 173.091 299.688 161.857 301.454C173.882 296.081 214.083 287.403 208.97 266.94C206.012 255.175 190.478 251.286 181.497 258.999C169.169 270.98 145.26 290.155 111.32 291.466C111.039 291.466 110.855 291.466 110.79 291.422C110.725 291.39 110.79 291.347 110.93 291.282C112.22 290.859 113.574 290.61 114.895 290.263C165.746 278.574 164.522 255.782 189.979 247.733C194.984 246.313 201.679 245.783 206.76 245.718C207.887 245.685 211.797 245.761 211.602 244.699C209.598 239.716 169.592 240.193 165.193 247.429C165.724 248.556 169.917 245.934 170.22 246.628C169.917 247.657 168.519 248.491 167.804 249.347C163.612 253.355 159.961 258.49 155.108 261.74C137.623 272.172 88.2025 282.073 68.118 283.059C93.7924 274.414 145.076 272.345 157.664 246.671C158.228 245.555 158.802 244.396 159.712 243.508C161.369 241.926 164.132 241.894 161.055 240.929C156.874 239.684 152.053 238.839 148.218 240.929C143.863 243.269 142.726 250.181 138.555 254.07C120.084 269.41 64.1314 276.57 38.2728 280.99C71.6387 268.695 117.452 270.092 143.018 241.655C145.975 237.658 138.295 239.586 137.103 240.594C135.229 241.677 133.864 243.323 132.207 245.219C129.953 247.971 126.487 251.167 123.215 253.095C110.865 260.743 95.4932 260.971 81.2585 262.216C80.7602 262.249 80.3702 262.249 80.2077 262.216C80.0127 262.173 80.0993 262.076 80.4243 261.956C86.9459 260.006 94.0199 258.468 99.8698 254.98C100.78 254.254 99.8264 254.265 98.9164 254.373C78.9619 257.212 58.314 261.664 38.0778 259.486C60.4481 257.19 93.6624 256.995 115.177 243.226C115.632 242.998 116.444 242.554 116.899 242.663C117.344 242.749 117.549 243.204 117.907 243.432C119.185 244.017 121.189 242.468 122.5 241.991C123.302 241.666 124.97 240.626 125.653 240.767C125.88 240.897 125.393 241.612 124.797 242.435C123.345 244.428 121.709 246.357 120.388 248.448C118.6 251.697 121.568 250.365 123.085 248.968C128.242 244.808 134.178 239.196 140.375 237.604C141.935 237.192 143.441 237.116 145 237.387C169.386 243.432 195.429 237.712 218.806 229.511C221.146 228.699 223.14 227.204 224.689 225.297C230.929 218.007 237.19 210.683 243.408 203.371C244.362 202.223 245.282 200.999 245.683 199.558C247.893 191.812 236.757 191.314 240.148 183.796C242.097 180.091 247.178 176.494 247.828 170.352C250.764 159.443 231.6 143.691 232.142 158.619C232.12 160.927 230.409 161.1 228.675 159.594C224.559 155.803 228.318 148.696 225.783 142.294C224.18 138.221 227.299 140.907 229.054 140.442C229.574 139.51 228.101 138.492 227.516 137.852C222.728 133.248 213.422 130.063 207.941 134.364C205.536 136.022 205.503 139.575 204.886 142.327C204.236 144.417 202.373 146.421 203.174 148.729C204.312 151.643 206.142 150.495 207.952 149.043C209.262 148.166 210.92 148.447 212.545 148.144C214.311 147.862 216.488 147.819 217.951 148.924C219.586 150.614 207.735 149.065 212.534 154.102C212.956 154.676 212.87 154.958 212.187 155.175C207.334 155.987 210.465 160.97 208.937 164.079C208.071 165.628 206.316 164.859 205.839 163.256C204.929 160.591 204.637 157.363 202.806 155.034C200.488 151.925 195.71 151.296 192.85 153.799C190.684 155.684 190.597 158.89 189.546 161.328C188.474 163.765 185.971 162.747 185.56 160.515C185.191 158.002 184.769 154.806 185.484 152.434C185.83 151.491 186.48 150.69 187.141 149.931C191.095 145.457 195.732 139.434 190.489 134.418C189.568 133.454 188.127 132.566 187.055 131.948C186.036 131.385 185.289 130.898 185.354 130.627C185.505 130.388 186.09 130.399 186.47 130.486C189.08 130.941 191.529 132.555 193.63 133.866C194.259 134.191 195.093 134.743 195.775 134.418C196.339 134.267 196.436 133.032 196.328 132.598C196.23 130.789 194.15 128.677 195.732 127.16C196.068 126.77 196.176 126.413 195.754 125.99C185.863 118.754 164.922 133.617 171.217 139.369C172.711 140.734 170.187 141.384 169.559 142.435C168.714 143.54 169.44 144.959 170.794 145.067C173.502 145.338 177.37 143.193 179.905 145.425C181.443 146.757 183.23 150.397 180.858 151.773C179.883 152.271 178.594 152.315 177.478 152.347C173.806 152.315 170.068 152.293 166.688 150.679C161.575 147.873 163.33 142.641 156.408 140.452C154.263 139.64 155.747 139.553 157.35 139.207C161.64 137.939 154.869 136.791 153.569 137.062C150.352 137.181 148.164 138.979 147.665 141.666C147.405 142.966 147.785 144.547 148.944 145.1C151.814 146.324 155.714 145.197 158.466 147.104C160.221 148.176 160.817 150.072 161.207 151.903C161.911 154.449 160.264 154.319 157.74 154.492C156.559 154.535 155.054 155.066 155.747 156.399C158.531 160.147 162.886 162.595 165.843 166.235C182.277 183.839 172.441 210.933 153.591 222.751C153.309 222.665 153.504 222.026 153.949 221.235C155.617 218.407 157.686 216.024 159.798 213.435C170.74 202.689 172.441 182.376 166.883 171.923C164.143 166.495 159.863 163.754 154.62 166.289C153.515 166.842 152.139 166.961 151.879 165.314C151.414 159.096 148.825 153.29 143.451 151.426C136.637 148.816 127.917 152.672 126.898 161.664C126.66 163.906 126.79 166.452 125.198 168.196C124.028 169.648 120.843 172.074 119.803 171.587C118.784 170.796 119.272 168.131 119.9 166.755C122.121 161.891 122.641 159.215 125.631 155.445C128.48 151.87 131.6 148.48 131.968 143.832C132.217 142.424 132.629 140.777 133.214 139.369C133.842 137.809 134.774 136.249 134.687 135.025C134.601 134.364 134.027 134.505 133.658 134.841C129.78 139.001 125.62 150.408 116.455 146.638C115.307 146.205 114.234 145.566 113.476 144.666C112.003 142.781 113.097 141.449 115.209 142.381C122.933 146.497 126.866 138.427 130.332 132.393C130.907 131.461 131.578 130.659 132.488 130.042C136.962 127.052 147.243 126.824 149.464 122.166C150.32 120.454 150.244 118.429 150.623 116.544C151.641 107.769 160.394 111.496 166.407 112.091C173.86 113.402 181.443 114.399 188.853 112.416C193.977 111.625 200.401 111.344 205.731 110.986C210.075 110.726 214.419 110.705 218.579 111.485C221.482 112.037 225.404 114.03 228.654 115.222C232.629 116.63 237.028 118.093 240.733 120.075C246.084 123.184 252.216 128.276 257.069 130.833C260.535 132.62 263.515 134.343 266.082 136.184C266.407 134.18 269.332 136.856 270.892 138.968C271.878 140.214 272.658 141.59 273.297 143.063C277.359 148.458 279.721 155.597 281.357 166.798C281.454 167.113 281.822 169.658 280.988 169.063C275.94 161.848 276.785 151.101 273.297 143.063C271.325 140.442 268.964 138.242 266.082 136.184C265.984 136.737 266.104 137.668 266.494 139.055C267.144 141.341 268.249 144.363 268.996 146.952C269.408 148.317 269.711 149.845 269.364 149.747C269.094 149.617 268.487 148.48 268.27 147.949C264.695 140.008 255.401 129.435 250.851 129.89C250.244 130.67 252.259 132.49 252.941 133.248C274.109 155.478 271.845 184.63 311.462 197.055C313.412 198.074 324.581 200.804 316.813 200.251L316.824 200.197ZM94.2691 286.948L94.4099 286.916C124.374 280.124 153.212 272.779 175.961 251.687C177.218 250.592 177.706 251.134 176.741 252.456C157.253 275.205 121.493 285.562 94.2691 286.959V286.948ZM180.457 179.939L180.436 179.777C179.612 170.666 174.781 164.773 170.783 161.284C170.177 160.331 171.13 159.464 171.942 158.294C172.874 157.2 173.437 156.139 174.315 156.323C177.901 157.991 190.196 183.85 179.32 198.539C178.984 198.507 179.222 197.629 179.266 197.283C180.587 190.61 181.042 185.897 180.457 179.95V179.939ZM187.076 165.596L187.098 165.553C201.918 178.986 185.917 209.763 170.805 220.747C169.917 221.267 170.805 220.195 170.924 220.043C184.92 204.682 192.688 185.854 187.087 165.596H187.076ZM198.603 175.357V175.335C199.079 179.809 199.762 184.586 199.794 189.125C199.079 192.906 197.53 197.239 195.873 200.63C195.158 200.349 198.635 183.774 198.603 175.357ZM205.947 188.021L206.012 187.977C207.085 188.096 206.424 193.946 205.937 194.044C205.59 193.264 205.698 192.202 205.622 191.346C205.698 190.274 205.298 188.931 205.947 188.021ZM212.404 165.574L212.437 165.542C224.721 182.257 219.64 206.285 201.961 222.654C201.3 223.131 202.037 221.917 202.08 221.831C214.202 202.97 216.575 187.511 212.415 165.585L212.404 165.574ZM219.186 166.083C226.834 174.544 229.022 185.789 223.649 198.485L223.573 198.648C223.226 199.341 223.01 199.785 222.836 199.374C222.435 197.164 224.418 179.116 219.445 167.958C219.099 167.015 218.059 164.903 219.186 166.073V166.083ZM219.186 155.142L219.272 155.11C219.814 155.24 220.225 155.955 220.713 156.334C221.038 156.735 221.699 157.07 221.666 157.58C221.027 158.024 217.615 156.171 219.196 155.142H219.186ZM230.04 204.768C229.975 195.647 231.178 186.19 231.557 177.003C231.589 176.624 231.611 175.801 231.817 175.66C234.72 184.511 234.46 195.55 230.084 204.768H230.051H230.04ZM234.558 165.488H234.623C235.294 165.813 236.388 167.102 237.049 167.741C238.306 169.106 238.707 171.381 238.284 173.147C237.158 174.187 233.236 166.354 234.558 165.488Z" fill="black"/>
<path d="M76.2645 56.1491C61.2065 78.8661 76.9253 109.805 104.864 109.35C118.969 109.123 134.243 101.345 137.342 82.0293C143.213 45.381 95.8291 26.6397 76.2645 56.1491ZM82.4285 62.3131L82.5585 62.2373C82.7644 62.1831 83.0244 62.5297 83.0569 62.9089C83.0894 63.2989 82.9485 63.7539 82.7318 64.1006C82.3418 64.7939 81.6052 64.783 81.6485 64.2414C81.7352 63.6781 82.1036 62.7789 82.4285 62.3131ZM79.3411 77.2953L79.4386 77.2303C80.1861 76.9161 80.4894 77.4794 80.2619 77.9236C80.1536 78.1727 79.8069 78.3461 79.6553 78.1944C79.4494 78.0102 79.1894 77.6203 79.3411 77.2953ZM81.4535 89.1683C83.9885 94.1732 78.8103 89.19 77.8462 87.7167C73.0796 81.7043 73.0579 72.442 76.687 65.7688L76.7303 65.7038C76.8928 65.498 77.0228 65.4005 77.077 65.6497C76.2537 71.3046 74.6178 79.1152 82.9377 82.6143C86.6534 84.5209 77.792 82.4193 81.4535 89.1683ZM84.281 69.2354C83.9993 69.5713 83.6635 69.4846 83.7393 69.0513C83.8801 68.683 84.1402 68.3363 84.476 68.1305H84.541C84.8877 68.3688 84.541 68.9863 84.281 69.2354ZM84.086 59.0632C83.3927 58.7057 84.086 57.8824 84.5193 57.6007L84.5843 57.6332C84.9743 57.9582 84.6926 59.1607 84.086 59.0632ZM87.3793 66.9822C86.4043 66.8522 87.3576 64.3605 87.8559 64.0897L87.9859 64.0572C89.5459 64.068 88.1809 66.7763 87.3793 66.9822ZM90.5317 62.9197C89.99 62.3131 91.03 61.2298 91.5283 61.0781L91.6584 61.0998C92.9475 61.6523 91.6583 63.8731 90.5317 62.9197ZM98.9599 63.1256C98.6674 62.9306 98.2665 61.9773 98.6673 61.7173L98.8082 61.6848C99.534 61.6089 99.5449 63.2231 98.9599 63.1256ZM101.906 78.6386C101.17 78.0211 101.289 76.2661 102.188 75.8761L102.351 75.8436C104.03 75.7245 103.152 79.4836 101.906 78.6386ZM107.269 51.1008C107.15 51.1983 107.009 51.4042 106.9 51.3825C106.554 51.2742 106.695 50.6458 106.944 50.4617L107.052 50.4292C107.215 50.4183 107.648 50.5375 107.583 50.7433C107.583 50.8733 107.377 50.9817 107.269 51.1008ZM109.858 49.465C109.88 49.0534 110.205 48.5009 110.573 48.3709H110.725C112.068 48.5984 110.183 50.6242 109.858 49.465Z" fill="black"/>
<path d="M262.908 194.715C288.734 189.049 288.333 257.428 238.197 249.487C235.522 246.779 251.49 247.981 261.207 241.904C269.646 236.628 263.482 238.741 262.908 238.535C260.275 237.56 269.234 233.053 270.155 232.219C269.126 230.518 250.721 238.437 271.433 224.213C255.281 229.121 257.426 227.81 268.877 215.785C252.497 222.816 251.273 219.003 265.042 209.47C255.985 208.96 250.515 220.054 258.65 204.833C253.678 208.343 248.706 211.853 243.744 215.363C243.582 210.661 260.947 195.148 262.919 194.715H262.908Z" fill="black"/>
<path d="M247.59 220.433C261.413 218.299 247.763 242.045 236.714 245.75C227.982 248.675 211.808 244.515 232.207 242.706C213.227 241.167 243.939 236.726 228.491 238.762C219.901 235.783 231.644 233.725 234.774 231.537C226.368 231.461 217.961 231.385 209.555 231.309C218.178 226.987 227.18 227.68 236.031 225.524C239.888 223.824 243.744 222.134 247.601 220.433H247.59Z" fill="black"/>
<path d="M162.691 0.737793C136.843 0.737793 112.317 6.39267 90.2717 16.5216H10.7134V331.624H90.2717C112.306 341.753 136.832 347.408 162.691 347.408C258.51 347.408 336.183 269.81 336.183 174.078C336.183 78.3461 258.51 0.737793 162.691 0.737793ZM19.9432 25.6539H73.0362C51.9983 38.3611 33.8962 55.3908 19.9432 75.5295V25.6539ZM19.9432 322.492V272.627C33.8962 292.755 51.9983 309.795 73.0362 322.492H19.9432ZM278.811 290.209C247.785 321.203 206.554 338.265 162.691 338.265C141.274 338.265 120.496 334.202 101.213 326.424C98.0931 325.178 95.0166 323.824 91.9833 322.372C75.3437 314.432 60.0039 303.62 46.5709 290.209C36.0411 279.701 27.1255 268.023 19.9432 255.456V92.6783C27.1255 80.1227 36.0411 68.4338 46.5709 57.9257C59.9931 44.5143 75.3437 33.7137 91.9833 25.7623C95.0166 24.3214 98.0931 22.9565 101.213 21.7107C120.496 13.9433 141.274 9.8701 162.691 9.8701C206.543 9.8701 247.785 26.9431 278.811 57.9257C309.859 88.9409 326.953 130.193 326.953 174.067C326.953 217.941 309.859 259.183 278.811 290.198V290.209Z" fill="black"/>
</g>
<defs>
<clipPath id="clip0_17_227">
<rect width="346.67" height="346.67" fill="white" transform="translate(0.113281 0.737793)"/>
</clipPath>
</defs>
</svg>
