<svg width="138" height="44" viewBox="0 0 138 44" fill="none" xmlns="http://www.w3.org/2000/svg">
<g clip-path="url(#clip0_4201_21693)">
<path d="M137.786 0H0V44H137.786V0Z" fill="#1D428A"/>
<path d="M28.1595 9.90649V34.0087H24.1964V23.578H13.8664V34.0087H9.90674V9.90649H13.8667V19.7967H24.1968V9.90649H28.1595Z" fill="white"/>
<path d="M38.3991 30.6C40.4654 30.6 42.0144 29.6711 42.8409 28.4648L45.9069 30.2556C44.3227 32.5922 41.7389 34.0051 38.3637 34.0051C32.6822 34.0051 29.0034 30.1197 29.0034 24.9467C29.0034 19.8496 32.6893 15.8901 38.0953 15.8901C43.2276 15.8901 46.7405 20.0229 46.7405 24.9821C46.7303 25.5009 46.6843 26.0184 46.6027 26.5309H32.8888C33.4735 29.2225 35.644 30.6 38.3991 30.6ZM42.9787 23.5055C42.463 20.544 40.2925 19.2668 38.054 19.2668C35.2636 19.2668 33.3703 20.9198 32.8529 23.5055H42.9787Z" fill="white"/>
<path d="M60.5515 28.7069C60.5515 32.1507 57.5492 34.0052 53.8403 34.0052C50.3946 34.0052 47.915 32.4545 46.813 29.9749L50.0167 28.1152C50.5677 29.6659 51.9459 30.5879 53.8403 30.5879C55.4933 30.5879 56.7668 30.0369 56.7668 28.6586C56.7668 25.5944 47.5018 27.3165 47.5018 21.1509C47.5018 17.9137 50.2922 15.8826 53.8049 15.8826C56.6311 15.8826 58.9709 17.1912 60.1771 19.4642L57.0423 21.2198C56.4224 19.8776 55.218 19.2575 53.8051 19.2575C52.4629 19.2575 51.2919 19.8421 51.2919 21.082C51.2881 24.2297 60.5515 22.3347 60.5515 28.7069Z" fill="white"/>
<path d="M67.634 20.2171V28.4825C67.634 30.6884 69.0804 30.6531 71.9045 30.5153V33.8563C66.1875 34.545 63.9146 32.9609 63.9146 28.482V20.2171H60.7461V16.6355H63.9144V12.916L67.6338 11.814V16.6355H71.9043V20.2171H67.634Z" fill="white"/>
<path d="M90.7555 16.3051V34.0049H87.0368V31.0451C85.7282 32.8713 83.697 33.9728 81.0108 33.9728C76.327 33.9728 72.4346 30.0114 72.4346 24.9144C72.4346 19.7821 76.3199 15.856 81.0108 15.856C83.697 15.856 85.7282 16.958 87.0368 18.7488V16.3051H90.7555ZM87.0368 24.9149C87.0368 21.7112 84.695 19.4046 81.5954 19.4046C78.4957 19.4046 76.1539 21.7112 76.1539 24.9149C76.1539 28.1186 78.4957 30.4252 81.5954 30.4252C84.695 30.4252 87.0368 28.1167 87.0368 24.9149Z" fill="white"/>
<path d="M110.119 27.1208C110.119 31.1157 106.882 34.0085 102.878 34.0085H92.5483V9.90649H102.124C106.01 9.90649 109.189 12.7326 109.189 16.5877C109.189 18.6877 108.26 20.4096 106.744 21.5123C108.775 22.5802 110.119 24.5422 110.119 27.1208ZM96.5204 13.6206V19.9574H102.135C103.89 19.9574 105.234 18.5799 105.234 16.7891C105.234 14.9983 103.89 13.6208 102.135 13.6208L96.5204 13.6206ZM106.163 26.9142C106.163 25.0188 104.75 23.5392 102.892 23.5392H96.5151V30.2998H102.887C104.747 30.2998 106.158 28.8128 106.158 26.9194L106.163 26.9142Z" fill="white"/>
<path d="M110.905 12.2819C110.905 11.8115 111.043 11.3516 111.304 10.9602C111.565 10.5688 111.936 10.2636 112.37 10.0831C112.805 9.90263 113.283 9.85505 113.744 9.94637C114.205 10.0377 114.629 10.2638 114.962 10.5961C115.295 10.9284 115.522 11.352 115.614 11.8132C115.706 12.2745 115.659 12.7526 115.479 13.1872C115.299 13.6218 114.995 13.9933 114.604 14.2546C114.213 14.516 113.753 14.6555 113.282 14.6555C112.653 14.6555 112.049 14.4055 111.603 13.9605C111.157 13.5154 110.906 12.9117 110.905 12.2819Z" fill="white"/>
<path d="M115.142 16.791H111.423V34.0106H115.142V16.791Z" fill="white"/>
<path d="M123.593 20.2181V28.4835C123.593 30.6894 125.041 30.6541 127.865 30.5163V33.8573C122.147 34.546 119.874 32.9619 119.874 28.483V20.2181H116.705V16.6365H119.873V12.917L123.593 11.8149V16.6365H127.872V20.2181H123.593Z" fill="white"/>
</g>
<defs>
<clipPath id="clip0_4201_21693">
<rect width="137.786" height="44" fill="white"/>
</clipPath>
</defs>
</svg>
