<svg width="160" height="64" viewBox="0 0 160 64" fill="none" xmlns="http://www.w3.org/2000/svg">
<g clip-path="url(#clip0_9_185)">
<path d="M35.244 47.108L29.99 30.742H33.992L36.876 41.93L39.76 30.742H42.396L45.28 41.93L48.152 30.742H52.154L46.922 47.108H43.648L41.072 37.194L38.53 47.108H35.244Z" fill="black"/>
<path d="M61.768 33.982H64.924V47.108H61.768L61.626 45.19C61.272 45.762 60.804 46.224 60.222 46.578C59.64 46.932 58.952 47.108 58.158 47.108C57.2 47.108 56.304 46.928 55.468 46.57C54.632 46.212 53.896 45.718 53.262 45.086C52.628 44.454 52.132 43.726 51.774 42.898C51.416 42.07 51.238 41.184 51.238 40.236C51.238 39.288 51.408 38.466 51.748 37.664C52.088 36.862 52.564 36.158 53.178 35.554C53.79 34.948 54.498 34.476 55.3 34.134C56.102 33.794 56.964 33.622 57.888 33.622C58.742 33.622 59.508 33.81 60.184 34.184C60.86 34.56 61.436 35.036 61.91 35.616L61.768 33.978V33.982ZM58.08 44.102C58.752 44.102 59.348 43.936 59.866 43.604C60.384 43.272 60.788 42.822 61.082 42.254C61.376 41.686 61.522 41.062 61.522 40.38C61.522 39.698 61.376 39.06 61.082 38.492C60.788 37.924 60.382 37.474 59.86 37.142C59.338 36.81 58.746 36.644 58.082 36.644C57.418 36.644 56.812 36.812 56.264 37.15C55.716 37.488 55.28 37.936 54.958 38.5C54.636 39.064 54.472 39.69 54.472 40.38C54.472 41.07 54.636 41.698 54.964 42.26C55.292 42.822 55.73 43.27 56.276 43.604C56.824 43.936 57.426 44.102 58.08 44.102Z" fill="black"/>
<path d="M75.542 47.108H71.468L66.884 33.982H70.248L73.512 43.512L77.012 33.982H80.376L75.544 47.108H75.542Z" fill="black"/>
<path d="M87.596 47.108C86.406 47.108 85.322 46.806 84.342 46.2C83.364 45.594 82.582 44.78 82 43.756C81.418 42.732 81.126 41.602 81.126 40.366C81.126 39.436 81.294 38.564 81.63 37.75C81.966 36.936 82.43 36.22 83.02 35.6C83.61 34.982 84.298 34.498 85.084 34.148C85.868 33.798 86.706 33.624 87.594 33.624C88.604 33.624 89.528 33.836 90.368 34.258C91.208 34.68 91.922 35.258 92.508 35.992C93.094 36.726 93.522 37.562 93.788 38.5C94.056 39.438 94.116 40.418 93.97 41.442H84.514C84.634 41.92 84.832 42.348 85.11 42.728C85.386 43.108 85.736 43.41 86.158 43.636C86.58 43.862 87.06 43.98 87.594 43.988C88.146 43.996 88.648 43.866 89.102 43.598C89.554 43.33 89.932 42.964 90.234 42.504L93.456 43.246C92.93 44.38 92.146 45.308 91.102 46.028C90.058 46.748 88.89 47.11 87.596 47.11V47.108ZM84.414 39.1H90.778C90.684 38.588 90.482 38.126 90.176 37.712C89.87 37.298 89.492 36.968 89.044 36.72C88.596 36.472 88.112 36.348 87.596 36.348C87.08 36.348 86.6 36.47 86.16 36.712C85.72 36.956 85.348 37.284 85.042 37.698C84.736 38.112 84.526 38.578 84.414 39.098V39.1Z" fill="black"/>
<path d="M42.916 61.086C42.414 61.086 41.93 61.008 41.464 60.852C40.998 60.696 40.59 60.474 40.242 60.184C39.894 59.894 39.646 59.55 39.498 59.15L40.544 58.762C40.632 59.008 40.798 59.222 41.04 59.404C41.282 59.586 41.568 59.728 41.896 59.83C42.224 59.932 42.564 59.982 42.916 59.982C43.316 59.982 43.688 59.918 44.032 59.788C44.376 59.658 44.656 59.478 44.868 59.244C45.082 59.012 45.188 58.738 45.188 58.426C45.188 58.114 45.076 57.842 44.854 57.638C44.632 57.434 44.348 57.272 44 57.15C43.654 57.03 43.292 56.936 42.914 56.87C42.27 56.764 41.694 56.614 41.184 56.418C40.676 56.222 40.274 55.95 39.978 55.598C39.682 55.246 39.534 54.784 39.534 54.208C39.534 53.672 39.69 53.204 40.004 52.804C40.318 52.404 40.732 52.094 41.246 51.874C41.762 51.654 42.316 51.544 42.912 51.544C43.406 51.544 43.884 51.62 44.348 51.772C44.812 51.924 45.222 52.144 45.578 52.434C45.934 52.724 46.188 53.078 46.344 53.496L45.284 53.878C45.196 53.628 45.03 53.412 44.788 53.228C44.546 53.046 44.262 52.906 43.936 52.806C43.61 52.708 43.268 52.658 42.914 52.658C42.518 52.654 42.15 52.718 41.808 52.85C41.466 52.982 41.188 53.164 40.974 53.398C40.76 53.63 40.654 53.902 40.654 54.208C40.654 54.578 40.752 54.86 40.95 55.054C41.148 55.25 41.418 55.396 41.76 55.492C42.102 55.588 42.486 55.674 42.912 55.748C43.516 55.85 44.076 56.008 44.592 56.226C45.108 56.444 45.522 56.732 45.834 57.092C46.148 57.452 46.304 57.896 46.304 58.424C46.304 58.952 46.148 59.428 45.834 59.828C45.52 60.228 45.106 60.538 44.592 60.758C44.076 60.978 43.516 61.088 42.912 61.088L42.916 61.086Z" fill="black"/>
<path d="M90.63 61.086C90.128 61.086 89.644 61.008 89.178 60.852C88.712 60.696 88.304 60.474 87.956 60.184C87.608 59.894 87.36 59.55 87.212 59.15L88.258 58.762C88.346 59.008 88.512 59.222 88.754 59.404C88.996 59.586 89.282 59.728 89.61 59.83C89.938 59.932 90.278 59.982 90.63 59.982C91.03 59.982 91.402 59.918 91.746 59.788C92.09 59.658 92.37 59.478 92.582 59.244C92.796 59.012 92.902 58.738 92.902 58.426C92.902 58.114 92.79 57.842 92.568 57.638C92.346 57.434 92.062 57.272 91.714 57.15C91.368 57.03 91.006 56.936 90.628 56.87C89.984 56.764 89.408 56.614 88.898 56.418C88.39 56.222 87.988 55.95 87.692 55.598C87.396 55.246 87.248 54.784 87.248 54.208C87.248 53.672 87.404 53.204 87.718 52.804C88.032 52.404 88.446 52.094 88.96 51.874C89.476 51.654 90.03 51.544 90.626 51.544C91.12 51.544 91.598 51.62 92.062 51.772C92.526 51.924 92.936 52.144 93.292 52.434C93.648 52.724 93.902 53.078 94.058 53.496L92.998 53.878C92.91 53.628 92.744 53.412 92.502 53.228C92.26 53.046 91.976 52.906 91.65 52.806C91.324 52.708 90.982 52.658 90.628 52.658C90.232 52.654 89.864 52.718 89.522 52.85C89.18 52.982 88.902 53.164 88.688 53.398C88.474 53.63 88.368 53.902 88.368 54.208C88.368 54.578 88.466 54.86 88.664 55.054C88.862 55.25 89.132 55.396 89.474 55.492C89.816 55.588 90.2 55.674 90.626 55.748C91.23 55.85 91.79 56.008 92.306 56.226C92.822 56.444 93.236 56.732 93.548 57.092C93.862 57.452 94.018 57.896 94.018 58.424C94.018 58.952 93.862 59.428 93.548 59.828C93.234 60.228 92.82 60.538 92.306 60.758C91.79 60.978 91.23 61.088 90.626 61.088L90.63 61.086Z" fill="black"/>
<path d="M54.87 51.688V52.796H51.764V60.916H50.644V52.796H47.546V51.688H54.87Z" fill="black"/>
<path d="M59.8561 61.086C59.1101 61.086 58.4621 60.906 57.9141 60.546C57.3661 60.186 56.9441 59.702 56.6481 59.092C56.3521 58.484 56.2041 57.808 56.2041 57.066V51.688H57.3241V57.066C57.3241 57.594 57.4221 58.078 57.6201 58.522C57.8181 58.966 58.1041 59.32 58.4801 59.584C58.8561 59.848 59.3141 59.98 59.8561 59.98C60.3981 59.98 60.8681 59.848 61.2421 59.582C61.6161 59.316 61.8981 58.962 62.0921 58.52C62.2861 58.078 62.3821 57.594 62.3821 57.066V51.688H63.5021V57.066C63.5021 57.624 63.4181 58.146 63.2481 58.632C63.0801 59.118 62.8361 59.544 62.5181 59.914C62.2001 60.284 61.8181 60.57 61.3681 60.778C60.9201 60.984 60.4161 61.088 59.8561 61.088V61.086Z" fill="black"/>
<path d="M65.1001 60.916V51.69H68.1861C68.8301 51.69 69.4341 51.81 69.9981 52.05C70.5621 52.29 71.0581 52.622 71.4841 53.046C71.9101 53.47 72.2441 53.96 72.4861 54.516C72.7281 55.072 72.8501 55.668 72.8501 56.306C72.8501 56.944 72.7281 57.54 72.4861 58.096C72.2441 58.652 71.9101 59.142 71.4841 59.566C71.0581 59.99 70.5621 60.322 69.9981 60.562C69.4341 60.802 68.8301 60.922 68.1861 60.922H65.1001V60.916ZM66.2201 59.808H68.1861C68.6741 59.808 69.1341 59.716 69.5621 59.534C69.9901 59.352 70.3681 59.1 70.6921 58.78C71.0161 58.46 71.2701 58.086 71.4541 57.662C71.6381 57.238 71.7301 56.784 71.7301 56.302C71.7301 55.82 71.6381 55.366 71.4541 54.942C71.2701 54.518 71.0141 54.146 70.6881 53.824C70.3621 53.504 69.9841 53.252 69.5581 53.07C69.1321 52.888 68.6741 52.796 68.1861 52.796H66.2201V59.808Z" fill="black"/>
<path d="M74.25 60.916V51.69H75.37V60.916H74.25Z" fill="black"/>
<path d="M81.5001 61.086C80.8701 61.086 80.2761 60.962 79.7201 60.714C79.1641 60.466 78.6761 60.122 78.2541 59.682C77.8321 59.242 77.5001 58.734 77.2621 58.156C77.0221 57.578 76.9021 56.96 76.9021 56.3C76.9021 55.64 77.0221 55.022 77.2621 54.444C77.5021 53.866 77.8321 53.358 78.2541 52.918C78.6761 52.478 79.1641 52.134 79.7201 51.886C80.2761 51.638 80.8681 51.514 81.5001 51.514C82.1321 51.514 82.7301 51.638 83.2861 51.886C83.8421 52.134 84.3301 52.478 84.7521 52.918C85.1741 53.358 85.5041 53.866 85.7421 54.444C85.9801 55.022 86.0981 55.64 86.0981 56.3C86.0981 56.96 85.9801 57.578 85.7421 58.156C85.5041 58.734 85.1741 59.242 84.7521 59.682C84.3301 60.122 83.8421 60.466 83.2861 60.714C82.7301 60.962 82.1361 61.086 81.5001 61.086ZM81.5001 59.98C81.9841 59.98 82.4361 59.884 82.8561 59.69C83.2761 59.496 83.6441 59.23 83.9621 58.89C84.2801 58.55 84.5281 58.158 84.7081 57.716C84.8881 57.274 84.9781 56.804 84.9781 56.302C84.9781 55.8 84.8861 55.328 84.7041 54.882C84.5221 54.436 84.2721 54.044 83.9541 53.708C83.6361 53.372 83.2681 53.108 82.8481 52.914C82.4281 52.72 81.9781 52.624 81.4981 52.624C81.0181 52.624 80.5621 52.72 80.1421 52.914C79.7221 53.108 79.3541 53.374 79.0361 53.714C78.7181 54.054 78.4701 54.446 78.2901 54.888C78.1101 55.33 78.0201 55.8 78.0201 56.302C78.0201 56.804 78.1121 57.282 78.2941 57.726C78.4761 58.17 78.7261 58.56 79.0441 58.9C79.3621 59.238 79.7301 59.504 80.1501 59.694C80.5701 59.886 81.0201 59.98 81.5001 59.98Z" fill="black"/>
<path d="M158.186 35.928C157.852 35.83 157.536 35.676 157.244 35.492L157.218 35.476C155.626 34.628 154.41 33.336 153.504 31.868C151.27 28.382 151.254 24.096 148.174 23.52C147.832 23.43 147.462 23.332 147.106 23.24C145.866 22.904 144.71 22.116 143.612 21.572C142.672 21.038 141.736 20.912 140.778 20.522C139.246 19.85 138.004 19.562 136.18 19.682C135 19.722 133.898 19.636 132.718 19.9C131.048 20.168 129.588 19.95 128.414 19.8C127.71 19.708 127.108 19.644 126.616 19.72C125.954 19.804 125.532 20.316 125.386 20.95C125.264 21.332 125.236 21.892 124.966 22.15C124.388 22.564 123.632 22.688 122.984 22.972C122.402 23.152 121.872 23.442 121.64 24.018C121.088 25.222 120.744 26.064 119.268 25.326C117.986 24.88 118.102 26.266 118.844 27.03C119.258 27.54 119.946 27.818 120.572 28.022C120.85 28.132 120.79 28.358 120.676 28.554C120.474 28.89 120.33 29.256 120.174 29.626C119.886 30.43 119 31.808 120.064 32.244C120.316 32.34 120.636 32.358 120.89 32.288C122.458 31.864 121.946 28.74 123.446 28.442C124.192 28.256 124.986 28.674 125.188 29.422C125.35 29.89 125.39 30.34 125.448 30.854C125.482 31.094 125.49 31.4 125.72 31.536C126.39 31.838 127.18 30.754 127.762 31.364C130.098 33.8 124.946 39.528 122.786 40.308C122.146 40.592 121.362 40.808 120.666 40.678C120.106 40.558 119.586 40.244 118.98 40.402C117.114 40.678 115.024 40.81 113.61 39.428C113.22 39.068 112.882 38.63 112.452 38.322C110.554 37.04 108.712 38.17 106.65 39.016C105.774 39.39 104.832 39.466 103.902 39.644C103.088 39.922 102.29 40.274 101.482 40.568C101.28 40.658 101.202 40.848 101.21 41.058C101.228 41.876 101.172 42.716 101.192 43.536C101.214 43.734 101.348 43.854 101.548 43.906C101.906 43.998 102.206 44.07 102.524 44.156C102.8 44.23 103.086 44.312 103.372 44.396C105.07 44.904 106.252 45.432 104.404 45.15C103.532 45.01 102.716 44.824 101.868 44.63C101.588 44.57 101.284 44.452 101.184 44.668C101.11 44.862 101.14 45.108 101.132 45.306C101.136 45.41 101.15 45.484 101.194 45.524C108.094 47.064 114.93 47 120.51 42.322C120.706 42.166 120.91 42.044 121.142 41.982C122.348 41.164 124.862 40.034 125.89 39.4C125.972 39.346 126.1 39.274 126.008 39.43C124.386 41.972 120.878 42.59 118.558 44.564C118.036 45.026 117.412 45.348 116.764 45.606C112.154 47.544 107.23 46.544 102.396 47.17C102.03 47.236 101.644 47.132 101.46 46.79C101.312 46.574 101.186 46.248 101.132 46.284C100.964 46.858 101.216 47.47 101.264 48.056C101.316 48.484 101.192 48.938 101.412 49.334C115.742 72.272 154.844 65.426 158.866 36.468C158.924 36.034 158.586 36.04 158.188 35.928H158.186ZM118.062 42.836C116.764 43.128 115.35 43.174 114.048 43.49C113.038 43.798 112.064 44.43 111.092 44.88C111.004 44.918 110.762 45.024 110.684 45.008C110.526 44.976 110.77 44.714 110.836 44.628C111.488 43.958 110.408 44.368 110.088 44.388C108.766 44.576 111.364 43.654 110.578 43.34C110.114 43.184 109.152 43.616 109.11 43.518C109.11 43.41 109.246 43.326 109.32 43.232C109.418 43.13 109.578 42.97 109.466 42.846C108.998 42.58 108.352 42.744 107.86 42.498C107.718 42.414 107.776 42.252 107.756 42.124C107.742 42.064 107.658 42.064 107.522 42.106C107.18 42.186 105.872 42.898 106.788 42.068C106.936 41.912 107.148 41.73 106.734 41.814C106.508 41.856 106.282 41.802 106.116 41.648C106.002 41.546 105.856 41.52 105.706 41.556C105.432 41.628 105.102 41.686 104.822 41.644C104.562 41.622 104.352 41.454 104.098 41.438C103.524 41.51 102.746 41.888 102.166 42C101.988 42.042 101.86 42.06 101.854 42.024C102.072 41.61 104.414 41.024 102.694 40.994C102.552 40.978 102.19 40.96 102.342 40.858C103.092 40.53 104.576 40.134 105.492 39.904C105.794 39.844 107.168 39.466 107.12 39.678C107.078 39.758 106.722 39.922 106.432 40.124C106.138 40.328 106.068 40.502 106.554 40.376C107.056 40.282 107.564 39.882 108.04 39.882C108.368 39.932 108.7 39.942 108.99 39.754C109.238 39.62 109.504 39.426 109.436 39.27C109.41 39.168 109.268 39.08 109.346 38.972C109.444 38.81 109.938 38.742 109.772 38.496C109.724 38.426 109.696 38.358 109.784 38.3C109.934 38.208 110.14 38.178 110.324 38.176C111.11 38.18 112.05 38.76 112.514 39.142C112.656 39.252 112.73 39.406 112.51 39.468C112.044 39.586 111.522 39.506 111.06 39.654C110.84 39.758 110.842 40.132 110.93 40.346C110.982 40.548 111.692 40.9 111.334 41.102C111.188 41.172 110.944 41.15 110.886 41.238C110.878 41.276 110.896 41.296 110.932 41.33C111.214 41.53 111.556 41.63 111.876 41.76C112 41.848 113.358 42.162 112.966 42.334C112.904 42.394 112.148 42.5 112.358 42.596C113.562 42.776 115.41 42.688 116.72 42.752C117.13 42.766 117.546 42.768 117.956 42.8C118.032 42.808 118.074 42.82 118.066 42.834L118.062 42.84V42.836ZM118.174 41.662L118.146 41.668C117.332 41.794 116.504 41.91 115.682 42.028C115.452 42.066 115.202 42.05 115.014 41.906C114.532 41.556 113.478 40.884 113.06 40.206C112.966 40.022 113.018 39.886 113.232 40.012C114.88 41.152 116.264 41.29 118.046 41.526C118.158 41.54 118.412 41.6 118.174 41.66V41.662ZM148.664 24.496C150.054 25.484 151.386 28.952 151.496 29.772C151.496 29.842 151.446 29.842 151.404 29.806C151.272 29.72 150.642 28.672 150.62 29.314C150.648 29.798 150.982 30.832 151.07 31.31C151.076 31.352 151.084 31.424 151.04 31.418C149.796 29.842 149.916 27.598 149.314 25.73C149.182 25.308 148.778 24.908 148.662 24.502L148.668 24.498L148.664 24.496ZM110.578 56.182C114.186 55.684 118.08 55.556 121.556 54.508C122.448 54.258 123.192 54.02 124.026 53.714C126.652 52.754 128.224 51.788 128.836 51.546C128.938 51.498 129.252 51.47 129.148 51.664C128.972 51.948 127.938 52.582 127.356 52.93C127.13 53.054 126.71 53.336 127.234 53.292C129.758 53.014 132.794 51.848 134.494 49.892C134.618 49.726 134.898 49.548 134.782 49.922C134.708 50.128 134.564 50.324 134.426 50.492C133.584 51.48 132.18 52.684 130.976 53.374C126.03 56.052 116.482 56.396 110.576 56.182H110.578ZM116.032 59.114C124.012 59.318 132.04 58.364 139.372 55.114C139.566 55.054 139.896 54.97 140.024 55.138C133.17 59.214 123.624 61.192 116.01 59.116H116.034L116.032 59.114ZM143.528 57.56L143.506 57.578C137.04 61.43 128.342 62.726 120.95 60.912C120.914 60.896 120.906 60.886 120.928 60.88C120.972 60.864 121.16 60.874 121.372 60.886C129.218 61.32 135.932 58.066 138.378 57.462C138.524 57.43 138.868 57.382 138.924 57.478C138.94 57.516 138.898 57.57 138.814 57.634C138.634 57.77 138.342 57.918 138.128 58.026C136.072 59.052 133.492 59.756 131.366 60.436C131.248 60.484 129.964 60.856 130.34 60.914C130.41 60.92 130.518 60.918 130.634 60.91C134.702 60.636 141.636 57.716 143.116 57.286C143.326 57.206 143.936 57.232 143.526 57.56H143.528ZM156.426 36.824C149.656 36.468 148.148 32.19 145.466 26.956C145.452 26.956 145.472 27.034 145.51 27.154C145.524 27.194 145.538 27.238 145.552 27.284C146.978 31.736 148.666 35.65 153.496 37.064C153.63 37.108 153.72 37.146 153.732 37.172C153.738 37.19 153.71 37.202 153.654 37.21C153.084 37.234 152.5 37.184 151.928 37.176C151.56 37.16 151.176 37.182 151.068 37.29C150.832 37.896 155.148 38.628 155.916 38.76C155.954 38.766 155.984 38.77 156.004 38.776C156.052 38.784 156.054 38.79 156 38.792C155.968 38.796 155.914 38.796 155.848 38.796C154.948 38.826 152.614 38.756 151.962 39.308C151.946 39.338 151.948 39.368 151.962 39.4C152.034 39.536 152.42 39.662 152.924 39.726C153.792 39.85 154.66 39.752 155.54 39.78C155.938 39.804 156.388 39.774 156.64 39.91C156.75 40.432 152.606 40.45 152.692 40.86C153.39 41.332 156.716 40.946 156.262 41.43C156.07 41.628 155.466 41.71 155.396 41.982C155.402 42.094 155.632 42.138 155.728 42.166C156.448 42.334 155.748 43.706 154.866 45.144C154.66 45.472 154.432 45.874 154.15 46.108C153.81 46.392 153.34 46.394 152.942 46.45C151.854 46.616 148.218 47.338 147.374 47.534L147.16 47.646C146.656 47.842 146.118 47.796 145.588 47.858C144.08 47.98 142.568 48.138 141.056 48.208C139.49 48.152 137.98 47.658 136.43 47.424C136.282 47.4 135.914 47.374 135.922 47.514C136.92 49.018 143.486 49.296 145.548 49.472C145.946 49.502 148.938 49.354 148.024 49.542C144.868 49.976 141.27 49.596 138.072 49.088C137.898 49.062 137.574 49.028 137.55 49.238C138.336 51.046 148.036 50.63 150.22 50.552C150.446 50.538 150.366 50.564 150.154 50.6C146.458 51.238 142.63 50.926 138.894 50.452C138.594 50.392 137.978 50.402 138.392 50.792C139.584 51.862 143.292 51.664 145.62 51.754C145.948 51.764 145.79 51.862 145.572 51.912C144.886 52.08 144.17 52.13 143.488 52.158C142.384 52.18 140.574 52.014 139.964 52.15C139.772 52.19 139.868 52.37 139.964 52.466C141.256 54.276 151.02 51.784 148.466 52.73C147.75 52.97 146.99 53.168 146.232 53.368C145.868 53.502 142.964 54.092 143.804 54.418C144.974 54.766 146.392 54.302 147.5 54.064C148.394 53.832 148.382 54.102 147.57 54.42C146.55 54.832 145.57 55.452 144.43 55.406C142.356 55.374 141.252 54.144 139.556 54.142C137.056 54.45 128.628 58.896 120.598 57.808C120.362 57.78 120.096 57.712 120.35 57.658C125.68 56.992 131.338 56.382 135.98 53.694C136.17 53.584 136.32 53.432 136.01 53.45C135.3 53.558 134.642 53.846 133.962 54.082C131.99 54.938 129.89 55.192 127.816 55.518C130.036 54.526 137.458 52.924 136.514 49.146C135.968 46.974 133.1 46.256 131.442 47.68C129.166 49.892 124.752 53.432 118.486 53.674C118.434 53.674 118.4 53.674 118.388 53.666C118.376 53.66 118.388 53.652 118.414 53.64C118.652 53.562 118.902 53.516 119.146 53.452C128.534 51.294 128.308 47.086 133.008 45.6C133.932 45.338 135.168 45.24 136.106 45.228C136.314 45.222 137.036 45.236 137 45.04C136.63 44.12 129.244 44.208 128.432 45.544C128.53 45.752 129.304 45.268 129.36 45.396C129.304 45.586 129.046 45.74 128.914 45.898C128.14 46.638 127.466 47.586 126.57 48.186C123.342 50.112 114.218 51.94 110.51 52.122C115.25 50.526 124.718 50.144 127.042 45.404C127.146 45.198 127.252 44.984 127.42 44.82C127.726 44.528 128.236 44.522 127.668 44.344C126.896 44.114 126.006 43.958 125.298 44.344C124.494 44.776 124.284 46.052 123.514 46.77C120.104 49.602 109.774 50.924 105 51.74C111.16 49.47 119.618 49.728 124.338 44.478C124.884 43.74 123.466 44.096 123.246 44.282C122.9 44.482 122.648 44.786 122.342 45.136C121.926 45.644 121.286 46.234 120.682 46.59C118.402 48.002 115.564 48.044 112.936 48.274C112.844 48.28 112.772 48.28 112.742 48.274C112.706 48.266 112.722 48.248 112.782 48.226C113.986 47.866 115.292 47.582 116.372 46.938C116.54 46.804 116.364 46.806 116.196 46.826C112.512 47.35 108.7 48.172 104.964 47.77C109.094 47.346 115.226 47.31 119.198 44.768C119.282 44.726 119.432 44.644 119.516 44.664C119.598 44.68 119.636 44.764 119.702 44.806C119.938 44.914 120.308 44.628 120.55 44.54C120.698 44.48 121.006 44.288 121.132 44.314C121.174 44.338 121.084 44.47 120.974 44.622C120.706 44.99 120.404 45.346 120.16 45.732C119.83 46.332 120.378 46.086 120.658 45.828C121.61 45.06 122.706 44.024 123.85 43.73C124.138 43.654 124.416 43.64 124.704 43.69C129.206 44.806 134.014 43.75 138.33 42.236C138.762 42.086 139.13 41.81 139.416 41.458C140.568 40.112 141.724 38.76 142.872 37.41C143.048 37.198 143.218 36.972 143.292 36.706C143.7 35.276 141.644 35.184 142.27 33.796C142.63 33.112 143.568 32.448 143.688 31.314C144.23 29.3 140.692 26.392 140.792 29.148C140.788 29.574 140.472 29.606 140.152 29.328C139.392 28.628 140.086 27.316 139.618 26.134C139.322 25.382 139.898 25.878 140.222 25.792C140.318 25.62 140.046 25.432 139.938 25.314C139.054 24.464 137.336 23.876 136.324 24.67C135.88 24.976 135.874 25.632 135.76 26.14C135.64 26.526 135.296 26.896 135.444 27.322C135.654 27.86 135.992 27.648 136.326 27.38C136.568 27.218 136.874 27.27 137.174 27.214C137.5 27.162 137.902 27.154 138.172 27.358C138.474 27.67 136.286 27.384 137.172 28.314C137.25 28.42 137.234 28.472 137.108 28.512C136.212 28.662 136.79 29.582 136.508 30.156C136.348 30.442 136.024 30.3 135.936 30.004C135.768 29.512 135.714 28.916 135.376 28.486C134.948 27.912 134.066 27.796 133.538 28.258C133.138 28.606 133.122 29.198 132.928 29.648C132.73 30.098 132.268 29.91 132.192 29.498C132.124 29.034 132.046 28.444 132.178 28.006C132.242 27.832 132.362 27.684 132.484 27.544C133.214 26.718 134.07 25.606 133.102 24.68C132.932 24.502 132.666 24.338 132.468 24.224C132.28 24.12 132.142 24.03 132.154 23.98C132.182 23.936 132.29 23.938 132.36 23.954C132.842 24.038 133.294 24.336 133.682 24.578C133.798 24.638 133.952 24.74 134.078 24.68C134.182 24.652 134.2 24.424 134.18 24.344C134.162 24.01 133.778 23.62 134.07 23.34C134.132 23.268 134.152 23.202 134.074 23.124C132.248 21.788 128.382 24.532 129.544 25.594C129.82 25.846 129.354 25.966 129.238 26.16C129.082 26.364 129.216 26.626 129.466 26.646C129.966 26.696 130.68 26.3 131.148 26.712C131.432 26.958 131.762 27.63 131.324 27.884C131.144 27.976 130.906 27.984 130.7 27.99C130.022 27.984 129.332 27.98 128.708 27.682C127.764 27.164 128.088 26.198 126.81 25.794C126.414 25.644 126.688 25.628 126.984 25.564C127.776 25.33 126.526 25.118 126.286 25.168C125.692 25.19 125.288 25.522 125.196 26.018C125.148 26.258 125.218 26.55 125.432 26.652C125.962 26.878 126.682 26.67 127.19 27.022C127.514 27.22 127.624 27.57 127.696 27.908C127.826 28.378 127.522 28.354 127.056 28.386C126.838 28.394 126.56 28.492 126.688 28.738C127.202 29.43 128.006 29.882 128.552 30.554C131.586 33.804 129.77 38.806 126.29 40.988C126.238 40.972 126.274 40.854 126.356 40.708C126.664 40.186 127.046 39.746 127.436 39.268C129.456 37.284 129.77 33.534 128.744 31.604C128.238 30.602 127.448 30.096 126.48 30.564C126.276 30.666 126.022 30.688 125.974 30.384C125.888 29.236 125.41 28.164 124.418 27.82C123.16 27.338 121.55 28.05 121.362 29.71C121.318 30.124 121.342 30.594 121.048 30.916C120.832 31.184 120.244 31.632 120.052 31.542C119.864 31.396 119.954 30.904 120.07 30.65C120.48 29.752 120.576 29.258 121.128 28.562C121.654 27.902 122.23 27.276 122.298 26.418C122.344 26.158 122.42 25.854 122.528 25.594C122.644 25.306 122.816 25.018 122.8 24.792C122.784 24.67 122.678 24.696 122.61 24.758C121.894 25.526 121.126 27.632 119.434 26.936C119.222 26.856 119.024 26.738 118.884 26.572C118.612 26.224 118.814 25.978 119.204 26.15C120.63 26.91 121.356 25.42 121.996 24.306C122.102 24.134 122.226 23.986 122.394 23.872C123.22 23.32 125.118 23.278 125.528 22.418C125.686 22.102 125.672 21.728 125.742 21.38C125.93 19.76 127.546 20.448 128.656 20.558C130.032 20.8 131.432 20.984 132.8 20.618C133.746 20.472 134.932 20.42 135.916 20.354C136.718 20.306 137.52 20.302 138.288 20.446C138.824 20.548 139.548 20.916 140.148 21.136C140.882 21.396 141.694 21.666 142.378 22.032C143.366 22.606 144.498 23.546 145.394 24.018C146.034 24.348 146.584 24.666 147.058 25.006C147.118 24.636 147.658 25.13 147.946 25.52C148.128 25.75 148.272 26.004 148.39 26.276C149.14 27.272 149.576 28.59 149.878 30.658C149.896 30.716 149.964 31.186 149.81 31.076C148.878 29.744 149.034 27.76 148.39 26.276C148.026 25.792 147.59 25.386 147.058 25.006C147.04 25.108 147.062 25.28 147.134 25.536C147.254 25.958 147.458 26.516 147.596 26.994C147.672 27.246 147.728 27.528 147.664 27.51C147.614 27.486 147.502 27.276 147.462 27.178C146.802 25.712 145.086 23.76 144.246 23.844C144.134 23.988 144.506 24.324 144.632 24.464C148.54 28.568 148.122 33.95 155.436 36.244C155.796 36.432 157.858 36.936 156.424 36.834L156.426 36.824ZM115.338 52.84L115.364 52.834C120.896 51.58 126.22 50.224 130.42 46.33C130.652 46.128 130.742 46.228 130.564 46.472C126.966 50.672 120.364 52.584 115.338 52.842V52.84ZM131.25 33.084L131.246 33.054C131.094 31.372 130.202 30.284 129.464 29.64C129.352 29.464 129.528 29.304 129.678 29.088C129.85 28.886 129.954 28.69 130.116 28.724C130.778 29.032 133.048 33.806 131.04 36.518C130.978 36.512 131.022 36.35 131.03 36.286C131.274 35.054 131.358 34.184 131.25 33.086V33.084ZM132.472 30.436L132.476 30.428C135.212 32.908 132.258 38.59 129.468 40.618C129.304 40.714 129.468 40.516 129.49 40.488C132.074 37.652 133.508 34.176 132.474 30.436H132.472ZM134.6 32.238V32.234C134.688 33.06 134.814 33.942 134.82 34.78C134.688 35.478 134.402 36.278 134.096 36.904C133.964 36.852 134.606 33.792 134.6 32.238ZM135.956 34.576L135.968 34.568C136.166 34.59 136.044 35.67 135.954 35.688C135.89 35.544 135.91 35.348 135.896 35.19C135.91 34.992 135.836 34.744 135.956 34.576ZM137.148 30.432L137.154 30.426C139.422 33.512 138.484 37.948 135.22 40.97C135.098 41.058 135.234 40.834 135.242 40.818C137.48 37.336 137.918 34.482 137.15 30.434L137.148 30.432ZM138.4 30.526C139.812 32.088 140.216 34.164 139.224 36.508L139.21 36.538C139.146 36.666 139.106 36.748 139.074 36.672C139 36.264 139.366 32.932 138.448 30.872C138.384 30.698 138.192 30.308 138.4 30.524V30.526ZM138.4 28.506L138.416 28.5C138.516 28.524 138.592 28.656 138.682 28.726C138.742 28.8 138.864 28.862 138.858 28.956C138.74 29.038 138.11 28.696 138.402 28.506H138.4ZM140.404 37.668C140.392 35.984 140.614 34.238 140.684 32.542C140.69 32.472 140.694 32.32 140.732 32.294C141.268 33.928 141.22 35.966 140.412 37.668H140.406H140.404ZM141.238 30.416H141.25C141.374 30.476 141.576 30.714 141.698 30.832C141.93 31.084 142.004 31.504 141.926 31.83C141.718 32.022 140.994 30.576 141.238 30.416Z" fill="black"/>
<path d="M112.014 10.23C109.234 14.424 112.136 20.136 117.294 20.052C119.898 20.01 122.718 18.574 123.29 15.008C124.374 8.24199 115.626 4.78199 112.014 10.23ZM113.152 11.368L113.176 11.354C113.214 11.344 113.262 11.408 113.268 11.478C113.274 11.55 113.248 11.634 113.208 11.698C113.136 11.826 113 11.824 113.008 11.724C113.024 11.62 113.092 11.454 113.152 11.368ZM112.582 14.134L112.6 14.122C112.738 14.064 112.794 14.168 112.752 14.25C112.732 14.296 112.668 14.328 112.64 14.3C112.602 14.266 112.554 14.194 112.582 14.134ZM112.972 16.326C113.44 17.25 112.484 16.33 112.306 16.058C111.426 14.948 111.422 13.238 112.092 12.006L112.1 11.994C112.13 11.956 112.154 11.938 112.164 11.984C112.012 13.028 111.71 14.47 113.246 15.116C113.932 15.468 112.296 15.08 112.972 16.326ZM113.494 12.646C113.442 12.708 113.38 12.692 113.394 12.612C113.42 12.544 113.468 12.48 113.53 12.442H113.542C113.606 12.486 113.542 12.6 113.494 12.646ZM113.458 10.768C113.33 10.702 113.458 10.55 113.538 10.498L113.55 10.504C113.622 10.564 113.57 10.786 113.458 10.768ZM114.066 12.23C113.886 12.206 114.062 11.746 114.154 11.696L114.178 11.69C114.466 11.692 114.214 12.192 114.066 12.23ZM114.648 11.48C114.548 11.368 114.74 11.168 114.832 11.14L114.856 11.144C115.094 11.246 114.856 11.656 114.648 11.48ZM116.204 11.518C116.15 11.482 116.076 11.306 116.15 11.258L116.176 11.252C116.31 11.238 116.312 11.536 116.204 11.518ZM116.748 14.382C116.612 14.268 116.634 13.944 116.8 13.872L116.83 13.866C117.14 13.844 116.978 14.538 116.748 14.382ZM117.738 9.298C117.716 9.316 117.69 9.35399 117.67 9.34999C117.606 9.32999 117.632 9.21399 117.678 9.17999L117.698 9.17399C117.728 9.17199 117.808 9.19399 117.796 9.23199C117.796 9.25599 117.758 9.276 117.738 9.298ZM118.216 8.99599C118.22 8.91999 118.28 8.81799 118.348 8.79399H118.376C118.624 8.83599 118.276 9.20999 118.216 8.99599Z" fill="black"/>
<path d="M146.472 35.812C151.24 34.766 151.166 47.39 141.91 45.924C141.416 45.424 144.364 45.646 146.158 44.524C147.716 43.55 146.578 43.94 146.472 43.902C145.986 43.722 147.64 42.89 147.81 42.736C147.62 42.422 144.222 43.884 148.046 41.258C145.064 42.164 145.46 41.922 147.574 39.702C144.55 41 144.324 40.296 146.866 38.536C145.194 38.442 144.184 40.49 145.686 37.68C144.768 38.328 143.85 38.976 142.934 39.624C142.904 38.756 146.11 35.892 146.474 35.812H146.472Z" fill="black"/>
<path d="M143.644 40.56C146.196 40.166 143.676 44.55 141.636 45.234C140.024 45.774 137.038 45.006 140.804 44.672C137.3 44.388 142.97 43.568 140.118 43.944C138.532 43.394 140.7 43.014 141.278 42.61C139.726 42.596 138.174 42.582 136.622 42.568C138.214 41.77 139.876 41.898 141.51 41.5C142.222 41.186 142.934 40.874 143.646 40.56H143.644Z" fill="black"/>
<path d="M127.97 0C123.198 0 118.67 1.044 114.6 2.914H99.9121V61.088H114.6C118.668 62.958 123.196 64.002 127.97 64.002C145.66 64.002 160 49.676 160 32.002C160 14.328 145.66 0 127.97 0ZM101.616 4.6H111.418C107.534 6.946 104.192 10.09 101.616 13.808V4.6ZM101.616 59.402V50.196C104.192 53.912 107.534 57.058 111.418 59.402H101.616ZM149.408 53.442C143.68 59.164 136.068 62.314 127.97 62.314C124.016 62.314 120.18 61.564 116.62 60.128C116.044 59.898 115.476 59.648 114.916 59.38C111.844 57.914 109.012 55.918 106.532 53.442C104.588 51.502 102.942 49.346 101.616 47.026V16.974C102.942 14.656 104.588 12.498 106.532 10.558C109.01 8.082 111.844 6.088 114.916 4.62C115.476 4.354 116.044 4.102 116.62 3.872C120.18 2.438 124.016 1.686 127.97 1.686C136.066 1.686 143.68 4.838 149.408 10.558C155.14 16.284 158.296 23.9 158.296 32C158.296 40.1 155.14 47.714 149.408 53.44V53.442Z" fill="black"/>
<path d="M8.24605 26.666C7.02805 26.666 5.86205 26.476 4.74405 26.098C3.62605 25.72 2.64805 25.174 1.80805 24.464C0.968047 23.754 0.366047 22.9 -0.00195312 21.904L3.60205 20.596C3.74805 21.012 4.04805 21.39 4.50005 21.732C4.95205 22.074 5.50205 22.35 6.15205 22.556C6.80205 22.764 7.50005 22.868 8.24605 22.868C8.99205 22.868 9.72805 22.752 10.394 22.518C11.06 22.284 11.598 21.958 12.008 21.538C12.418 21.118 12.622 20.628 12.622 20.068C12.622 19.508 12.406 19.028 11.976 18.66C11.546 18.292 10.994 17.998 10.324 17.78C9.65205 17.562 8.96005 17.396 8.24605 17.282C6.68205 17.044 5.28205 16.674 4.04405 16.176C2.80605 15.678 1.82805 14.988 1.10805 14.106C0.390047 13.224 0.0320469 12.082 0.0320469 10.68C0.0320469 9.36201 0.414047 8.21001 1.18005 7.22401C1.94605 6.23801 2.95405 5.47001 4.20205 4.92001C5.45005 4.37001 6.79805 4.09601 8.24605 4.09601C9.45205 4.09601 10.618 4.28201 11.74 4.65601C12.862 5.03001 13.846 5.57401 14.69 6.29001C15.534 7.00601 16.14 7.86801 16.508 8.87401L12.888 10.166C12.74 9.75201 12.442 9.37201 11.99 9.03001C11.538 8.68801 10.988 8.41601 10.338 8.21201C9.68805 8.01001 8.99005 7.90801 8.24405 7.90801C7.49805 7.89801 6.79405 8.01401 6.12805 8.25801C5.46205 8.50201 4.91805 8.83201 4.50005 9.24601C4.08005 9.66201 3.87005 10.138 3.87005 10.678C3.87005 11.374 4.06605 11.898 4.46005 12.25C4.85405 12.602 5.38005 12.86 6.04205 13.02C6.70405 13.18 7.43805 13.328 8.24605 13.464C9.71405 13.692 11.074 14.076 12.322 14.616C13.57 15.156 14.572 15.874 15.328 16.772C16.084 17.67 16.462 18.768 16.462 20.064C16.462 21.36 16.084 22.536 15.328 23.528C14.572 24.52 13.57 25.29 12.322 25.84C11.074 26.39 9.71405 26.666 8.24605 26.666Z" fill="black"/>
<path d="M32.898 26.666H28.476L24.888 20.144L22.684 22.744V26.666H18.844V2.914H22.684V16.844L27.894 10.696H32.914L27.516 17.062L32.898 26.666Z" fill="black"/>
<path d="M42.096 26.666C40.648 26.666 39.328 26.298 38.138 25.56C36.948 24.824 35.998 23.832 35.29 22.588C34.582 21.342 34.228 19.968 34.228 18.464C34.228 17.334 34.432 16.272 34.842 15.28C35.252 14.29 35.816 13.418 36.534 12.666C37.252 11.914 38.09 11.324 39.044 10.9C39.998 10.474 41.016 10.262 42.098 10.262C43.326 10.262 44.45 10.518 45.474 11.032C46.498 11.546 47.366 12.248 48.078 13.14C48.792 14.032 49.31 15.05 49.636 16.19C49.962 17.332 50.034 18.524 49.856 19.77H38.352C38.498 20.352 38.74 20.872 39.076 21.334C39.412 21.796 39.836 22.164 40.35 22.44C40.864 22.716 41.446 22.858 42.096 22.868C42.768 22.878 43.378 22.72 43.93 22.394C44.48 22.068 44.94 21.624 45.308 21.064L49.226 21.966C48.586 23.346 47.632 24.474 46.362 25.352C45.092 26.228 43.67 26.668 42.096 26.668V26.666ZM38.224 16.922H45.968C45.852 16.3 45.608 15.736 45.236 15.234C44.864 14.73 44.404 14.328 43.858 14.028C43.312 13.728 42.724 13.576 42.096 13.576C41.468 13.576 40.884 13.724 40.35 14.02C39.814 14.316 39.362 14.716 38.988 15.218C38.616 15.722 38.362 16.29 38.224 16.922Z" fill="black"/>
<path d="M60.91 14.494H57.856V26.666H54.016V14.494H51.686V10.696H54.016V5.80798H57.856V10.696H60.91V14.494Z" fill="black"/>
<path d="M73.344 21.576L76.806 23.428C76.082 24.404 75.174 25.186 74.084 25.778C72.992 26.37 71.802 26.666 70.512 26.666C69.064 26.666 67.744 26.298 66.554 25.56C65.364 24.824 64.414 23.834 63.706 22.594C62.998 21.354 62.644 19.982 62.644 18.478C62.644 17.336 62.848 16.27 63.258 15.28C63.668 14.29 64.232 13.418 64.95 12.666C65.668 11.914 66.506 11.324 67.46 10.9C68.414 10.474 69.432 10.262 70.514 10.262C71.804 10.262 72.996 10.558 74.086 11.15C75.178 11.742 76.084 12.536 76.808 13.532L73.346 15.368C72.978 14.954 72.546 14.632 72.048 14.402C71.55 14.174 71.038 14.06 70.514 14.06C69.758 14.06 69.076 14.266 68.468 14.674C67.86 15.084 67.376 15.624 67.02 16.292C66.664 16.962 66.484 17.69 66.484 18.478C66.484 19.266 66.662 19.98 67.02 20.65C67.376 21.32 67.86 21.856 68.468 22.26C69.076 22.664 69.758 22.868 70.514 22.868C71.06 22.868 71.578 22.752 72.072 22.518C72.566 22.284 72.99 21.97 73.346 21.576H73.344Z" fill="black"/>
<path d="M94.0481 16.424V26.666H90.2081V17.42C90.2081 16.808 90.0561 16.25 89.7521 15.746C89.4481 15.242 89.0421 14.844 88.5321 14.548C88.0221 14.252 87.4601 14.104 86.8401 14.104C86.2201 14.104 85.6561 14.252 85.1481 14.548C84.6381 14.844 84.2361 15.244 83.9361 15.746C83.6361 16.25 83.4881 16.808 83.4881 17.42V26.666H79.6481L79.6321 2.914H83.4721L83.4881 12.082C84.0241 11.522 84.6621 11.078 85.4081 10.752C86.1521 10.426 86.9561 10.262 87.8161 10.262C88.9601 10.262 90.0041 10.54 90.9481 11.094C91.8921 11.65 92.6461 12.392 93.2061 13.32C93.7681 14.248 94.0481 15.284 94.0481 16.426V16.424Z" fill="black"/>
</g>
<defs>
<clipPath id="clip0_9_185">
<rect width="160" height="64" fill="white"/>
</clipPath>
</defs>
</svg>
