<svg width="160" height="64" viewBox="0 0 160 64" fill="none" xmlns="http://www.w3.org/2000/svg">
<g clip-path="url(#clip0_9_126)">
<path d="M48.16 30.74L45.28 41.92L42.4 30.74H39.76L36.88 41.92L34 30.74H30L35.24 47.1H38.52L41.08 37.2L43.64 47.1H46.92L52.16 30.74H48.16Z" fill="white"/>
<path d="M61.9 35.62C61.42 35.04 60.86 34.56 60.18 34.18C59.5 33.8 58.74 33.62 57.88 33.62C57.02 33.62 56.1 33.8 55.3 34.14C54.5 34.48 53.8 34.96 53.18 35.56C52.56 36.16 52.08 36.86 51.74 37.66C51.4 38.46 51.24 39.28 51.24 40.24C51.24 41.2 51.42 42.08 51.78 42.9C52.14 43.72 52.64 44.46 53.26 45.08C53.9 45.72 54.64 46.2 55.46 46.56C56.3 46.92 57.2 47.1 58.16 47.1C59.12 47.1 59.64 46.92 60.22 46.58C60.8 46.22 61.26 45.76 61.62 45.2L61.76 47.12H64.92V34H61.76L61.9 35.64V35.62ZM61.08 42.26C60.78 42.82 60.38 43.28 59.86 43.62C59.34 43.96 58.74 44.12 58.08 44.12C57.42 44.12 56.82 43.96 56.28 43.62C55.74 43.28 55.3 42.84 54.96 42.28C54.62 41.72 54.46 41.08 54.46 40.4C54.46 39.72 54.62 39.08 54.94 38.52C55.26 37.96 55.7 37.5 56.24 37.16C56.78 36.82 57.4 36.66 58.06 36.66C58.72 36.66 59.32 36.82 59.84 37.16C60.36 37.5 60.76 37.94 61.06 38.52C61.36 39.08 61.5 39.72 61.5 40.4C61.5 41.08 61.36 41.7 61.06 42.28L61.08 42.26Z" fill="white"/>
<path d="M77.02 33.98L73.52 43.52L70.24 33.98H66.88L71.46 47.1H75.54L80.38 33.98H77.02Z" fill="white"/>
<path d="M93.78 38.5C93.52 37.56 93.08 36.72 92.5 36C91.92 35.26 91.2 34.68 90.36 34.26C89.52 33.84 88.6 33.62 87.58 33.62C86.56 33.62 85.86 33.8 85.08 34.14C84.3 34.5 83.6 34.98 83.02 35.6C82.42 36.22 81.96 36.94 81.62 37.76C81.28 38.58 81.12 39.44 81.12 40.38C81.12 41.32 81.42 42.74 82 43.76C82.58 44.78 83.36 45.6 84.34 46.2C85.32 46.8 86.4 47.1 87.6 47.1C88.9 47.1 90.06 46.74 91.1 46.02C92.14 45.3 92.92 44.38 93.46 43.24L90.24 42.5C89.94 42.96 89.56 43.32 89.1 43.6C88.64 43.86 88.14 44 87.6 44C87.06 44 86.58 43.88 86.16 43.64C85.74 43.4 85.38 43.12 85.12 42.74C84.84 42.36 84.64 41.94 84.52 41.46H93.98C94.12 40.44 94.06 39.46 93.8 38.52L93.78 38.5ZM84.42 39.1C84.54 38.58 84.74 38.12 85.04 37.7C85.34 37.28 85.72 36.96 86.16 36.72C86.6 36.48 87.08 36.36 87.6 36.36C88.12 36.36 88.6 36.48 89.04 36.74C89.48 37 89.86 37.32 90.18 37.74C90.48 38.16 90.68 38.62 90.78 39.12H84.42V39.1Z" fill="white"/>
<path d="M41.8 52.84C42.14 52.7 42.5 52.64 42.9 52.64C43.26 52.64 43.6 52.68 43.92 52.78C44.24 52.88 44.52 53.02 44.78 53.2C45.02 53.38 45.18 53.6 45.28 53.84L46.34 53.46C46.18 53.04 45.94 52.68 45.58 52.4C45.22 52.1 44.82 51.9 44.36 51.74C43.9 51.58 43.42 51.52 42.92 51.52C42.42 51.52 41.76 51.62 41.26 51.84C40.74 52.06 40.34 52.38 40.02 52.78C39.7 53.18 39.56 53.64 39.56 54.18C39.56 54.72 39.7 55.22 40 55.58C40.3 55.94 40.7 56.2 41.2 56.4C41.7 56.6 42.28 56.74 42.92 56.86C43.3 56.92 43.66 57.02 44 57.14C44.34 57.26 44.64 57.42 44.86 57.62C45.08 57.82 45.2 58.1 45.2 58.4C45.2 58.7 45.1 58.98 44.88 59.22C44.66 59.46 44.38 59.64 44.04 59.76C43.7 59.9 43.32 59.96 42.92 59.96C42.52 59.96 42.22 59.92 41.9 59.8C41.58 59.7 41.28 59.56 41.04 59.38C40.8 59.2 40.64 58.98 40.54 58.74L39.5 59.12C39.64 59.52 39.9 59.86 40.24 60.16C40.58 60.44 41 60.68 41.46 60.82C41.92 60.98 42.42 61.06 42.92 61.06C43.52 61.06 44.08 60.96 44.6 60.74C45.12 60.52 45.52 60.2 45.84 59.8C46.16 59.4 46.3 58.92 46.3 58.4C46.3 57.88 46.14 57.42 45.84 57.06C45.52 56.7 45.12 56.42 44.6 56.2C44.08 55.98 43.52 55.82 42.92 55.72C42.5 55.64 42.12 55.56 41.76 55.46C41.42 55.36 41.14 55.22 40.94 55.02C40.74 54.82 40.64 54.54 40.64 54.18C40.64 53.82 40.74 53.6 40.96 53.38C41.18 53.14 41.46 52.96 41.8 52.84Z" fill="white"/>
<path d="M89.52 52.84C89.86 52.7 90.22 52.64 90.62 52.64C90.98 52.64 91.32 52.68 91.64 52.78C91.96 52.88 92.24 53.02 92.5 53.2C92.74 53.38 92.9 53.6 93 53.84L94.06 53.46C93.9 53.04 93.66 52.68 93.3 52.4C92.94 52.1 92.54 51.9 92.06 51.74C91.58 51.58 91.12 51.52 90.62 51.52C90.12 51.52 89.46 51.62 88.96 51.84C88.44 52.06 88.04 52.38 87.72 52.78C87.4 53.18 87.26 53.64 87.26 54.18C87.26 54.72 87.4 55.22 87.7 55.58C88 55.94 88.4 56.2 88.9 56.4C89.4 56.6 89.98 56.74 90.62 56.86C91 56.92 91.36 57.02 91.7 57.14C92.04 57.26 92.34 57.42 92.56 57.62C92.78 57.82 92.9 58.1 92.9 58.4C92.9 58.7 92.8 58.98 92.58 59.22C92.36 59.46 92.08 59.64 91.74 59.76C91.4 59.9 91.02 59.96 90.62 59.96C90.22 59.96 89.92 59.92 89.6 59.8C89.28 59.68 88.98 59.56 88.74 59.38C88.5 59.2 88.34 58.98 88.24 58.74L87.2 59.12C87.34 59.52 87.6 59.86 87.94 60.16C88.28 60.44 88.7 60.68 89.16 60.82C89.62 60.98 90.12 61.06 90.62 61.06C91.22 61.06 91.78 60.96 92.3 60.74C92.82 60.52 93.22 60.2 93.54 59.8C93.86 59.4 94 58.92 94 58.4C94 57.88 93.84 57.42 93.54 57.06C93.22 56.7 92.82 56.42 92.3 56.2C91.78 55.98 91.22 55.82 90.62 55.72C90.2 55.64 89.8 55.56 89.46 55.46C89.12 55.36 88.84 55.22 88.66 55.02C88.46 54.82 88.36 54.54 88.36 54.18C88.36 53.82 88.46 53.6 88.68 53.38C88.9 53.14 89.18 52.96 89.52 52.84Z" fill="white"/>
<path d="M47.54 52.8H50.64V60.92H51.76V52.8H54.88V51.68H47.54V52.8Z" fill="white"/>
<path d="M62.38 57.06C62.38 57.58 62.28 58.08 62.08 58.52C61.88 58.96 61.6 59.32 61.24 59.58C60.86 59.84 60.4 59.98 59.86 59.98C59.32 59.98 58.86 59.84 58.48 59.58C58.1 59.32 57.82 58.96 57.62 58.52C57.42 58.08 57.32 57.6 57.32 57.06V51.68H56.2V57.06C56.2 57.8 56.34 58.48 56.64 59.08C56.94 59.68 57.36 60.18 57.9 60.54C58.44 60.9 59.1 61.08 59.84 61.08C60.4 61.08 60.9 60.98 61.36 60.78C61.8 60.58 62.2 60.28 62.52 59.92C62.84 59.54 63.08 59.12 63.24 58.64C63.4 58.16 63.5 57.64 63.5 57.08V51.7H62.38V57.08V57.06Z" fill="white"/>
<path d="M71.48 53.04C71.06 52.62 70.56 52.28 70 52.04C69.44 51.8 68.84 51.68 68.18 51.68H65.1V60.9H68.18C68.82 60.9 69.42 60.78 70 60.54C70.58 60.3 71.06 59.96 71.48 59.54C71.9 59.12 72.24 58.62 72.48 58.06C72.72 57.5 72.84 56.9 72.84 56.26C72.84 55.62 72.72 55.02 72.48 54.46C72.24 53.9 71.9 53.42 71.48 53V53.04ZM71.46 57.66C71.28 58.08 71.02 58.46 70.7 58.78C70.38 59.1 70 59.36 69.56 59.54C69.14 59.72 68.68 59.82 68.18 59.82H66.22V52.8H68.18C68.66 52.8 69.12 52.9 69.56 53.08C69.98 53.26 70.36 53.52 70.68 53.84C71 54.16 71.26 54.54 71.44 54.96C71.62 55.38 71.72 55.84 71.72 56.32C71.72 56.8 71.62 57.26 71.44 57.68L71.46 57.66Z" fill="white"/>
<path d="M75.36 51.68H74.24V60.9H75.36V51.68Z" fill="white"/>
<path d="M84.76 52.92C84.34 52.48 83.86 52.14 83.3 51.88C82.74 51.64 82.14 51.5 81.52 51.5C80.9 51.5 80.3 51.62 79.74 51.88C79.18 52.12 78.7 52.48 78.28 52.92C77.86 53.36 77.52 53.86 77.28 54.44C77.04 55.02 76.92 55.64 76.92 56.3C76.92 56.96 77.04 57.58 77.28 58.16C77.52 58.74 77.84 59.24 78.28 59.68C78.72 60.12 79.18 60.46 79.74 60.72C80.3 60.96 80.9 61.1 81.52 61.1C82.14 61.1 82.76 60.98 83.3 60.72C83.86 60.48 84.34 60.12 84.76 59.68C85.18 59.24 85.52 58.74 85.76 58.16C86 57.58 86.12 56.96 86.12 56.3C86.12 55.64 86 55.02 85.76 54.44C85.52 53.86 85.2 53.36 84.76 52.92ZM84.7 57.72C84.52 58.16 84.28 58.56 83.96 58.9C83.64 59.24 83.28 59.5 82.86 59.7C82.44 59.9 81.98 60 81.5 60C81.02 60 80.58 59.9 80.14 59.72C79.72 59.52 79.36 59.26 79.04 58.92C78.72 58.58 78.48 58.2 78.28 57.74C78.1 57.3 78 56.82 78 56.32C78 55.82 78.1 55.34 78.26 54.9C78.44 54.46 78.68 54.06 79 53.72C79.32 53.38 79.68 53.12 80.1 52.92C80.52 52.72 80.98 52.62 81.46 52.62C81.94 52.62 82.38 52.72 82.82 52.92C83.24 53.12 83.6 53.38 83.92 53.72C84.24 54.06 84.48 54.44 84.68 54.9C84.86 55.34 84.96 55.82 84.96 56.32C84.96 56.82 84.86 57.3 84.7 57.74V57.72Z" fill="white"/>
<path d="M129.46 40.62C132.26 38.6 135.2 32.9 132.46 30.44C133.5 34.18 132.06 37.66 129.48 40.5C129.46 40.52 129.3 40.72 129.46 40.62Z" fill="white"/>
<path d="M131.04 36.52C133.04 33.8 130.78 29.04 130.12 28.72C129.96 28.68 129.86 28.88 129.68 29.08C129.54 29.3 129.36 29.46 129.46 29.64C130.2 30.28 131.1 31.38 131.24 33.06V33.1C131.36 34.2 131.26 35.06 131.02 36.3C131.02 36.36 130.96 36.52 131.02 36.54L131.04 36.52Z" fill="white"/>
<path d="M134.1 36.9C134.4 36.28 134.7 35.48 134.82 34.78C134.82 33.94 134.68 33.06 134.6 32.24C134.6 33.8 133.96 36.86 134.1 36.9Z" fill="white"/>
<path d="M148.4 26.26C148.28 25.98 148.14 25.74 147.96 25.5C147.68 25.1 147.14 24.62 147.08 24.98C147.62 25.36 148.04 25.76 148.42 26.24L148.4 26.26Z" fill="white"/>
<path d="M149.88 30.64C149.58 28.58 149.14 27.26 148.4 26.26C149.04 27.74 148.88 29.72 149.82 31.06C149.98 31.16 149.9 30.7 149.88 30.64Z" fill="white"/>
<path d="M118.04 41.52C116.26 41.28 114.88 41.14 113.22 40C113 39.88 112.96 40 113.04 40.2C113.46 40.88 114.52 41.54 115 41.9C115.18 42.04 115.44 42.06 115.66 42.02C116.48 41.9 117.3 41.78 118.12 41.66H118.14C118.38 41.6 118.14 41.54 118.02 41.52H118.04Z" fill="white"/>
<path d="M117.96 42.8C117.56 42.76 117.14 42.76 116.72 42.76C115.42 42.7 113.56 42.78 112.36 42.6C112.16 42.5 112.9 42.4 112.96 42.34C113.36 42.16 112 41.86 111.86 41.76C111.54 41.62 111.2 41.52 110.92 41.32C110.88 41.28 110.86 41.26 110.88 41.22C110.94 41.14 111.18 41.16 111.32 41.08C111.68 40.88 110.96 40.52 110.92 40.32C110.84 40.1 110.82 39.74 111.06 39.62C111.52 39.48 112.04 39.56 112.5 39.44C112.72 39.38 112.64 39.22 112.5 39.12C112.04 38.74 111.1 38.16 110.3 38.16C110.12 38.16 109.9 38.2 109.76 38.28C109.68 38.34 109.7 38.4 109.76 38.48C109.92 38.72 109.42 38.8 109.34 38.96C109.26 39.06 109.4 39.16 109.44 39.26C109.5 39.42 109.24 39.62 109 39.74C108.7 39.92 108.38 39.92 108.04 39.86C107.56 39.86 107.06 40.26 106.56 40.36C106.08 40.48 106.14 40.32 106.44 40.1C106.74 39.9 107.08 39.74 107.12 39.66C107.16 39.44 105.8 39.82 105.5 39.88C104.58 40.12 103.1 40.5 102.34 40.84C102.18 40.94 102.56 40.96 102.7 40.98C104.42 41.02 102.08 41.6 101.86 42.02C101.86 42.06 102 42.04 102.18 42.02C102.76 41.9 103.54 41.54 104.12 41.46C104.38 41.46 104.58 41.64 104.84 41.66C105.12 41.7 105.44 41.66 105.72 41.58C105.88 41.54 106.02 41.58 106.12 41.68C106.28 41.84 106.52 41.9 106.74 41.84C107.16 41.76 106.94 41.94 106.8 42.1C105.88 42.92 107.2 42.22 107.54 42.14C107.68 42.1 107.76 42.1 107.78 42.14C107.78 42.26 107.74 42.44 107.88 42.52C108.38 42.76 109.02 42.6 109.48 42.86C109.58 42.98 109.44 43.14 109.34 43.24C109.26 43.34 109.14 43.42 109.14 43.52C109.18 43.62 110.14 43.18 110.6 43.34C111.38 43.66 108.78 44.58 110.1 44.38C110.42 44.38 111.5 43.94 110.84 44.62C110.78 44.7 110.54 44.96 110.68 45C110.76 45 111 44.92 111.08 44.88C112.06 44.44 113.02 43.8 114.04 43.48C115.34 43.16 116.76 43.12 118.06 42.82C118.06 42.82 118.02 42.78 117.96 42.78V42.8Z" fill="white"/>
<path d="M134.42 50.5C134.56 50.34 134.7 50.14 134.78 49.94C134.9 49.56 134.62 49.74 134.5 49.9C132.8 51.86 129.76 53.02 127.24 53.3C126.72 53.34 127.14 53.06 127.36 52.94C127.94 52.6 128.98 51.96 129.16 51.68C129.26 51.48 128.96 51.52 128.84 51.56C128.22 51.8 126.66 52.76 124.04 53.72C123.2 54.02 122.46 54.26 121.58 54.52C118.1 55.56 114.22 55.7 110.6 56.2C116.5 56.42 126.06 56.08 131 53.4C132.2 52.7 133.6 51.5 134.44 50.52L134.42 50.5Z" fill="white"/>
<path d="M135.96 35.68C136.06 35.68 136.18 34.58 135.96 34.56C135.84 34.74 135.92 34.98 135.9 35.18C135.9 35.34 135.9 35.54 135.96 35.68Z" fill="white"/>
<path d="M140.02 55.14C139.9 54.98 139.56 55.06 139.36 55.12C132.02 58.36 124 59.32 116.02 59.12H116C123.62 61.2 133.16 59.22 140.02 55.14Z" fill="white"/>
<path d="M143.12 57.28C141.64 57.7 134.7 60.64 130.64 60.9C130.52 60.9 130.42 60.9 130.34 60.9C129.96 60.84 131.24 60.48 131.36 60.42C133.48 59.74 136.06 59.04 138.12 58.02C138.34 57.92 138.62 57.76 138.8 57.62C138.88 57.56 138.92 57.5 138.9 57.46C138.84 57.36 138.5 57.42 138.36 57.46C135.92 58.06 129.2 61.32 121.36 60.88C121.14 60.88 120.96 60.86 120.92 60.88C120.9 60.88 120.92 60.88 120.94 60.92C128.34 62.74 137.04 61.44 143.5 57.58H143.52C143.92 57.24 143.32 57.2 143.12 57.28Z" fill="white"/>
<path d="M130.42 46.32C126.22 50.22 120.9 51.56 115.36 52.82H115.34C120.36 52.58 126.96 50.66 130.56 46.46C130.74 46.22 130.64 46.12 130.42 46.32Z" fill="white"/>
<path d="M151.04 31.42C151.08 31.42 151.08 31.36 151.08 31.32C151 30.84 150.66 29.8 150.64 29.32C150.66 28.68 151.3 29.72 151.42 29.82C151.46 29.86 151.52 29.86 151.52 29.78C151.42 28.96 150.08 25.5 148.68 24.5C148.8 24.92 149.2 25.32 149.34 25.74C149.94 27.6 149.82 29.86 151.06 31.42H151.04Z" fill="white"/>
<path d="M135.22 40.96C138.48 37.94 139.42 33.5 137.16 30.42C137.92 34.48 137.5 37.32 135.26 40.82C135.26 40.82 135.12 41.06 135.24 40.98L135.22 40.96Z" fill="white"/>
<path d="M138.44 30.88C139.36 32.94 139 36.28 139.06 36.68C139.1 36.76 139.14 36.68 139.2 36.54V36.5C140.2 34.16 139.8 32.08 138.4 30.52C138.2 30.3 138.4 30.7 138.44 30.86V30.88Z" fill="white"/>
<path d="M141.92 31.82C142 31.5 141.92 31.08 141.7 30.82C141.58 30.7 141.38 30.46 141.26 30.4C141.02 30.56 141.74 32 141.94 31.82H141.92Z" fill="white"/>
<path d="M138.86 28.96C138.86 28.86 138.74 28.8 138.68 28.74C138.58 28.66 138.52 28.54 138.42 28.52C138.12 28.72 138.76 29.06 138.88 28.98L138.86 28.96Z" fill="white"/>
<path d="M140.4 37.66C141.2 35.96 141.26 33.92 140.72 32.28C140.68 32.3 140.68 32.46 140.68 32.52C140.62 34.22 140.38 35.96 140.4 37.64V37.66Z" fill="white"/>
<path d="M113.46 10.76C113.58 10.76 113.62 10.56 113.56 10.5C113.48 10.54 113.36 10.7 113.48 10.76H113.46Z" fill="white"/>
<path d="M113.5 12.64C113.54 12.6 113.62 12.48 113.54 12.44C113.48 12.48 113.44 12.54 113.4 12.6C113.4 12.68 113.44 12.7 113.5 12.64Z" fill="white"/>
<path d="M114.86 11.14H114.84C114.74 11.16 114.56 11.36 114.66 11.48C114.86 11.66 115.1 11.24 114.86 11.14Z" fill="white"/>
<path d="M112.98 16.32C112.3 15.08 113.94 15.46 113.26 15.12C111.72 14.48 112.02 13.04 112.18 11.98C112.18 11.94 112.14 11.96 112.12 11.98C111.46 13.22 111.46 14.94 112.34 16.04C112.52 16.32 113.48 17.24 113 16.3L112.98 16.32Z" fill="white"/>
<path d="M113.2 11.7C113.24 11.64 113.26 11.56 113.26 11.48C113.26 11.4 113.2 11.34 113.16 11.36H113.14C113.08 11.46 113.02 11.62 113 11.72C113 11.82 113.12 11.82 113.2 11.7Z" fill="white"/>
<path d="M112.76 14.24C112.8 14.16 112.76 14.06 112.6 14.12C112.58 14.2 112.6 14.26 112.66 14.3C112.68 14.32 112.76 14.3 112.78 14.26L112.76 14.24Z" fill="white"/>
<path d="M114.06 12.24C114.2 12.2 114.46 11.7 114.18 11.7H114.16C114.06 11.76 113.9 12.22 114.08 12.24H114.06Z" fill="white"/>
<path d="M116.2 11.52C116.3 11.52 116.3 11.24 116.18 11.26H116.16C116.08 11.32 116.16 11.48 116.22 11.52H116.2Z" fill="white"/>
<path d="M118.38 8.79999H118.36C118.3 8.81999 118.24 8.91999 118.22 8.99999C118.28 9.21999 118.62 8.83999 118.38 8.79999Z" fill="white"/>
<path d="M116.84 13.86H116.8C116.64 13.94 116.62 14.26 116.74 14.38C116.98 14.54 117.14 13.84 116.82 13.86H116.84Z" fill="white"/>
<path d="M117.68 9.33997C117.68 9.33997 117.72 9.29997 117.74 9.27997C117.74 9.25997 117.8 9.23997 117.8 9.21997C117.8 9.17997 117.74 9.15997 117.7 9.15997H117.68C117.64 9.19997 117.6 9.31997 117.68 9.33997Z" fill="white"/>
<path d="M155.44 36.22C148.12 33.94 148.54 28.56 144.64 24.44C144.52 24.3 144.14 23.96 144.26 23.82C145.1 23.74 146.82 25.7 147.48 27.16C147.52 27.26 147.64 27.46 147.68 27.5C147.74 27.5 147.68 27.24 147.62 26.98C147.48 26.5 147.28 25.94 147.16 25.52C147.08 25.26 147.06 25.1 147.08 24.98C146.6 24.64 146.06 24.32 145.42 24C144.52 23.52 143.4 22.58 142.4 22.02C141.72 21.66 140.9 21.38 140.16 21.12C139.56 20.9 138.84 20.54 138.3 20.42C137.54 20.28 136.74 20.28 135.92 20.32C134.94 20.38 133.76 20.44 132.8 20.58C131.44 20.94 130.04 20.76 128.66 20.52C127.56 20.42 125.94 19.72 125.74 21.34C125.68 21.68 125.68 22.06 125.52 22.38C125.12 23.24 123.22 23.28 122.38 23.84C122.22 23.96 122.08 24.1 121.98 24.28C121.34 25.4 120.62 26.88 119.18 26.12C118.78 25.94 118.58 26.2 118.86 26.54C119 26.7 119.2 26.82 119.42 26.9C121.12 27.6 121.88 25.48 122.6 24.72C122.66 24.66 122.78 24.64 122.8 24.76C122.8 24.98 122.64 25.28 122.54 25.56C122.44 25.82 122.36 26.12 122.3 26.38C122.24 27.24 121.66 27.86 121.14 28.52C120.58 29.22 120.5 29.7 120.08 30.6C119.96 30.86 119.88 31.34 120.08 31.5C120.28 31.6 120.86 31.14 121.08 30.88C121.38 30.56 121.34 30.1 121.4 29.68C121.58 28.02 123.2 27.3 124.46 27.78C125.46 28.12 125.92 29.2 126.02 30.34C126.06 30.64 126.32 30.62 126.52 30.52C127.48 30.06 128.28 30.56 128.78 31.56C129.8 33.5 129.5 37.24 127.48 39.22C127.08 39.7 126.7 40.14 126.4 40.66C126.32 40.8 126.28 40.92 126.34 40.94C129.82 38.76 131.64 33.76 128.6 30.5C128.06 29.82 127.24 29.38 126.74 28.68C126.62 28.44 126.9 28.34 127.1 28.32C127.56 28.28 127.86 28.32 127.74 27.84C127.66 27.5 127.56 27.16 127.24 26.96C126.74 26.6 126.02 26.82 125.48 26.58C125.26 26.48 125.2 26.18 125.24 25.94C125.34 25.44 125.74 25.12 126.34 25.1C126.58 25.06 127.84 25.26 127.04 25.5C126.74 25.56 126.48 25.58 126.86 25.74C128.14 26.14 127.82 27.1 128.76 27.62C129.38 27.92 130.08 27.92 130.76 27.92C130.96 27.92 131.2 27.92 131.38 27.82C131.82 27.56 131.48 26.9 131.2 26.64C130.74 26.22 130.02 26.64 129.52 26.58C129.28 26.58 129.14 26.3 129.3 26.1C129.42 25.9 129.88 25.78 129.6 25.54C128.44 24.48 132.3 21.74 134.14 23.06C134.22 23.14 134.2 23.2 134.14 23.28C133.84 23.56 134.24 23.94 134.24 24.28C134.24 24.36 134.24 24.58 134.14 24.62C134.02 24.68 133.86 24.58 133.74 24.52C133.36 24.28 132.9 23.98 132.42 23.9C132.36 23.9 132.24 23.9 132.22 23.92C132.22 23.96 132.34 24.06 132.54 24.16C132.74 24.28 133 24.44 133.18 24.62C134.14 25.54 133.28 26.66 132.56 27.48C132.44 27.62 132.32 27.76 132.26 27.94C132.12 28.38 132.2 28.96 132.26 29.44C132.34 29.86 132.8 30.04 133 29.6C133.2 29.14 133.2 28.56 133.6 28.2C134.12 27.74 135 27.86 135.44 28.42C135.78 28.86 135.84 29.44 136 29.94C136.08 30.24 136.42 30.38 136.58 30.1C136.86 29.52 136.28 28.6 137.18 28.46C137.3 28.42 137.32 28.36 137.24 28.26C136.36 27.32 138.54 27.62 138.24 27.3C137.98 27.1 137.56 27.1 137.24 27.16C136.94 27.22 136.64 27.16 136.4 27.32C136.06 27.58 135.72 27.8 135.52 27.26C135.38 26.84 135.72 26.46 135.84 26.08C135.96 25.58 135.96 24.92 136.4 24.6C137.4 23.8 139.14 24.4 140.02 25.24C140.12 25.36 140.4 25.54 140.3 25.72C139.98 25.8 139.4 25.3 139.7 26.06C140.16 27.24 139.48 28.56 140.24 29.26C140.56 29.54 140.88 29.5 140.88 29.08C140.78 26.32 144.32 29.24 143.78 31.24C143.66 32.38 142.72 33.04 142.36 33.72C141.74 35.1 143.78 35.2 143.38 36.62C143.3 36.88 143.14 37.12 142.96 37.32C141.82 38.68 140.66 40.02 139.5 41.36C139.36 41.52 139.22 41.68 139.04 41.8C139.88 41.68 140.74 41.6 141.58 41.4L143.72 40.46C146.28 40.06 143.76 44.44 141.72 45.14C140.1 45.68 137.12 44.92 140.88 44.58C137.38 44.3 143.04 43.48 140.2 43.86C138.62 43.3 140.78 42.92 141.36 42.52C140.04 42.52 138.72 42.5 137.4 42.48C133.36 43.8 128.94 44.62 124.78 43.6C124.5 43.56 124.22 43.56 123.92 43.64C122.78 43.94 121.68 44.96 120.72 45.74C120.44 46 119.9 46.24 120.22 45.64C120.46 45.26 120.76 44.9 121.04 44.54C121.14 44.38 121.24 44.26 121.2 44.24C121.08 44.22 120.76 44.4 120.62 44.46C120.38 44.54 120 44.84 119.78 44.72C119.72 44.68 119.68 44.6 119.6 44.58C119.52 44.56 119.36 44.64 119.28 44.68C115.3 47.22 109.18 47.26 105.04 47.68C108.78 48.08 112.58 47.26 116.28 46.74C116.44 46.74 116.62 46.72 116.46 46.86C115.38 47.5 114.08 47.78 112.86 48.14C112.8 48.16 112.78 48.18 112.82 48.18C112.86 48.18 112.92 48.18 113.02 48.18C115.64 47.96 118.48 47.9 120.76 46.5C121.36 46.14 122 45.56 122.42 45.04C122.72 44.68 122.98 44.38 123.32 44.18C123.54 44 124.96 43.64 124.42 44.38C119.7 49.62 111.24 49.38 105.08 51.64C109.86 50.82 120.18 49.5 123.6 46.66C124.36 45.94 124.58 44.66 125.38 44.24C126.08 43.86 126.98 44 127.74 44.24C128.3 44.42 127.8 44.42 127.5 44.72C127.34 44.88 127.22 45.1 127.12 45.3C124.8 50.04 115.32 50.42 110.58 52.02C114.28 51.84 123.42 50 126.64 48.08C127.54 47.48 128.2 46.54 128.98 45.8C129.12 45.64 129.38 45.48 129.42 45.3C129.36 45.18 128.6 45.66 128.5 45.44C129.32 44.1 136.7 44.02 137.06 44.94C137.1 45.14 136.38 45.12 136.16 45.12C135.22 45.12 133.98 45.24 133.06 45.5C128.36 46.98 128.58 51.2 119.2 53.36C118.96 53.42 118.7 53.46 118.46 53.54C118.44 53.54 118.42 53.56 118.44 53.56C118.44 53.56 118.48 53.56 118.54 53.56C124.8 53.32 129.22 49.78 131.5 47.56C133.16 46.14 136.02 46.86 136.58 49.02C137.52 52.8 130.1 54.4 127.88 55.4C129.96 55.08 132.06 54.82 134.02 53.96C134.7 53.72 135.36 53.44 136.06 53.32C136.36 53.32 136.22 53.46 136.02 53.56C131.38 56.24 125.72 56.86 120.38 57.52C120.12 57.58 120.38 57.64 120.62 57.68C128.64 58.78 137.08 54.32 139.58 54.02C141.28 54.02 142.38 55.26 144.46 55.28C145.6 55.32 146.58 54.7 147.6 54.3C148.42 53.98 148.42 53.72 147.54 53.94C146.44 54.18 145.02 54.64 143.84 54.3C143 53.98 145.9 53.38 146.26 53.26C147.02 53.06 147.78 52.86 148.5 52.62C151.06 51.68 141.3 54.16 140 52.36C139.9 52.26 139.8 52.08 140 52.04C140.6 51.9 142.42 52.06 143.52 52.04C144.2 52.02 144.92 51.96 145.6 51.8C145.82 51.76 145.98 51.66 145.64 51.64C143.32 51.54 139.6 51.74 138.42 50.68C138 50.28 138.62 50.28 138.92 50.34C142.66 50.82 146.48 51.12 150.18 50.48C150.4 50.44 150.48 50.42 150.24 50.44C148.06 50.52 138.36 50.94 137.58 49.12C137.6 48.9 137.92 48.94 138.1 48.96C141.3 49.46 144.9 49.84 148.06 49.42C148.98 49.24 145.98 49.38 145.58 49.36C143.52 49.18 136.96 48.9 135.96 47.4C135.96 47.26 136.32 47.28 136.46 47.3C138.02 47.54 139.52 48.02 141.08 48.08C142.6 48.02 144.1 47.86 145.62 47.72C146.16 47.66 146.68 47.72 147.2 47.5L147.42 47.38C148.26 47.18 151.9 46.46 152.98 46.3C153.38 46.24 153.84 46.24 154.18 45.96C154.46 45.72 154.68 45.32 154.9 45C155.78 43.56 156.48 42.2 155.76 42.02C155.66 42 155.44 41.96 155.42 41.84C155.48 41.56 156.1 41.48 156.28 41.28C156.74 40.8 153.4 41.18 152.72 40.72C152.64 40.3 156.78 40.3 156.66 39.76C156.4 39.62 155.96 39.66 155.56 39.62C154.68 39.6 153.82 39.7 152.94 39.56C152.44 39.5 152.04 39.38 151.98 39.24C151.98 39.2 151.98 39.18 151.98 39.14C152.64 38.58 154.96 38.66 155.86 38.62C155.92 38.62 155.98 38.62 156.02 38.62C156.08 38.62 156.08 38.62 156.02 38.62C156.02 38.62 155.96 38.62 155.94 38.62C155.18 38.48 150.86 37.76 151.1 37.14C151.2 37.04 151.6 37 151.96 37.02C152.54 37.02 153.12 37.08 153.68 37.06C153.74 37.06 153.76 37.06 153.76 37.02C153.76 37 153.66 36.96 153.52 36.92C148.68 35.5 147 31.6 145.58 27.14C145.58 27.1 145.56 27.06 145.54 27.02C145.5 26.9 145.48 26.82 145.5 26.82C148.18 32.06 149.7 36.34 156.46 36.68C157.9 36.78 155.82 36.28 155.48 36.08L155.44 36.22ZM146.48 35.82C151.24 34.78 151.18 47.4 141.92 45.94C141.42 45.44 144.38 45.66 146.16 44.54C147.72 43.56 146.58 43.96 146.48 43.92C146 43.74 147.64 42.9 147.82 42.76C147.62 42.44 144.24 43.9 148.06 41.28C145.08 42.18 145.48 41.94 147.58 39.72C144.56 41.02 144.34 40.32 146.88 38.56C145.2 38.46 144.2 40.52 145.7 37.7L142.94 39.64C142.9 38.78 146.12 35.9 146.48 35.82Z" fill="white"/>
<path d="M127.96 0C123.18 0 118.66 1.04 114.6 2.92H99.92V61.1H114.6C118.66 62.96 123.2 64.02 127.96 64.02C145.66 64.02 160 49.7 160 32.02C160 14.34 145.66 0 127.96 0ZM112.02 10.22C115.64 4.78 124.38 8.24 123.3 15C122.72 18.56 119.9 20 117.3 20.04C112.14 20.12 109.24 14.42 112.02 10.22ZM101.62 4.6H111.42C107.54 6.94 104.2 10.1 101.62 13.8V4.6ZM101.62 59.4V50.2C104.2 53.92 107.54 57.06 111.42 59.4H101.62ZM149.4 53.44C143.68 59.16 136.06 62.32 127.96 62.32C119.86 62.32 120.16 61.56 116.6 60.14C116.02 59.9 115.46 59.66 114.9 59.4C111.82 57.94 109 55.94 106.52 53.46C104.58 51.52 102.92 49.36 101.6 47.04V47C101.8 47.18 102.1 47.24 102.38 47.18C107.22 46.56 112.14 47.56 116.74 45.62C117.38 45.36 118.02 45.04 118.54 44.58C120.86 42.6 124.36 41.98 125.98 39.44C126.08 39.28 125.94 39.36 125.86 39.42C124.84 40.06 122.32 41.18 121.12 42C120.88 42.06 120.68 42.18 120.48 42.34C115.02 46.92 108.34 47.08 101.58 45.64V44.6C101.66 44.6 101.74 44.64 101.82 44.66C102.66 44.86 103.48 45.04 104.36 45.18C106.2 45.46 105.02 44.94 103.32 44.42C103.04 44.34 102.74 44.26 102.48 44.18C102.18 44.1 101.9 44.04 101.58 43.94V40.54C102.34 40.26 103.1 39.92 103.86 39.66C104.8 39.48 105.74 39.4 106.6 39.04C108.66 38.2 110.5 37.06 112.4 38.34C112.84 38.64 113.16 39.08 113.56 39.44C114.98 40.82 117.06 40.68 118.92 40.42C119.52 40.26 120.04 40.58 120.6 40.7C121.3 40.82 122.08 40.62 122.72 40.32C124.88 39.54 130.04 33.82 127.7 31.38C127.12 30.76 126.32 31.86 125.66 31.56C125.42 31.42 125.42 31.12 125.38 30.88C125.32 30.36 125.28 29.92 125.12 29.44C124.92 28.7 124.12 28.28 123.38 28.46C121.88 28.76 122.4 31.88 120.82 32.3C120.56 32.36 120.24 32.36 120 32.26C118.94 31.82 119.82 30.44 120.1 29.64C120.26 29.26 120.4 28.9 120.6 28.56C120.72 28.36 120.78 28.14 120.5 28.02C119.88 27.82 119.18 27.54 118.78 27.02C118.04 26.26 117.92 24.86 119.2 25.32C120.68 26.06 121.02 25.22 121.58 24.02C121.82 23.44 122.34 23.16 122.92 22.98C123.56 22.7 124.32 22.58 124.9 22.16C125.16 21.9 125.2 21.34 125.32 20.96C125.46 20.32 125.88 19.82 126.56 19.74C127.06 19.66 127.66 19.74 128.36 19.82C129.54 19.98 131 20.18 132.66 19.92C133.84 19.66 134.94 19.74 136.12 19.7C137.94 19.58 139.18 19.86 140.72 20.54C141.68 20.92 142.62 21.06 143.56 21.58C144.66 22.12 145.82 22.92 147.06 23.24C147.42 23.34 147.78 23.44 148.12 23.52C151.2 24.1 151.22 28.38 153.46 31.86C154.36 33.32 155.58 34.62 157.18 35.46H157.2C157.46 35.64 157.72 35.76 158 35.86C157.16 42.48 154.16 48.62 149.36 53.42L149.4 53.44Z" fill="white"/>
<path d="M6.12 8.26002C6.78 8.02002 7.48 7.90002 8.24 7.90002C8.98 7.90002 9.68 8.00002 10.34 8.20002C10.98 8.40002 11.54 8.68002 12 9.02002C12.46 9.36002 12.76 9.74002 12.9 10.16L16.52 8.86002C16.16 7.86002 15.54 7.00002 14.7 6.28002C13.86 5.56002 12.88 5.02002 11.74 4.64002C10.62 4.26002 9.46 4.08002 8.24 4.08002C7.02 4.08002 5.44 4.36002 4.2 4.90002C2.96 5.44002 1.94 6.22002 1.18 7.20002C0.42 8.20002 0.04 9.36002 0.04 10.68C0.04 12 0.4 13.22 1.12 14.1C1.84 14.98 2.82 15.68 4.06 16.16C5.3 16.64 6.7 17.02 8.26 17.26C8.98 17.38 9.66 17.54 10.34 17.76C11.02 17.98 11.56 18.28 12 18.64C12.44 19 12.64 19.48 12.64 20.04C12.64 20.6 12.44 21.08 12.02 21.5C11.62 21.92 11.08 22.24 10.4 22.48C9.74 22.72 9 22.84 8.26 22.84C7.52 22.84 6.82 22.74 6.16 22.52C5.52 22.32 4.96 22.04 4.5 21.7C4.04 21.36 3.74 20.98 3.6 20.56L0 21.9C0.36 22.9 0.98 23.74 1.8 24.46C2.64 25.16 3.62 25.72 4.74 26.1C5.86 26.48 7.02 26.66 8.24 26.66C9.46 26.66 11.06 26.38 12.32 25.84C13.58 25.3 14.56 24.52 15.32 23.52C16.08 22.52 16.46 21.36 16.46 20.06C16.46 18.76 16.08 17.66 15.32 16.76C14.56 15.86 13.56 15.14 12.32 14.6C11.08 14.06 9.72 13.68 8.24 13.44C7.44 13.3 6.7 13.16 6.04 13C5.38 12.84 4.86 12.58 4.46 12.24C4.06 11.88 3.86 11.36 3.86 10.66C3.86 9.96002 4.08 9.64002 4.5 9.22002C4.92 8.80002 5.46 8.48002 6.12 8.24002V8.26002Z" fill="white"/>
<path d="M27.52 17.06L32.92 10.7H27.9L22.68 16.84V2.91998H18.84V26.66H22.68V22.74L24.88 20.14L28.48 26.66H32.9L27.52 17.06Z" fill="white"/>
<path d="M38.14 25.56C39.34 26.3 40.64 26.66 42.1 26.66C43.68 26.66 45.1 26.22 46.36 25.34C47.64 24.46 48.58 23.34 49.22 21.96L45.3 21.06C44.94 21.62 44.48 22.06 43.92 22.38C43.36 22.7 42.76 22.86 42.08 22.86C41.44 22.86 40.84 22.7 40.34 22.44C39.82 22.16 39.4 21.8 39.06 21.34C38.72 20.88 38.48 20.36 38.34 19.78H49.84C50.02 18.54 49.94 17.34 49.62 16.2C49.3 15.06 48.78 14.04 48.06 13.16C47.34 12.26 46.48 11.56 45.46 11.06C44.44 10.54 43.32 10.3 42.08 10.3C40.84 10.3 39.98 10.52 39.02 10.94C38.06 11.36 37.22 11.96 36.52 12.7C35.8 13.46 35.24 14.32 34.82 15.32C34.42 16.32 34.2 17.38 34.2 18.5C34.2 19.62 34.56 21.38 35.26 22.62C35.96 23.86 36.92 24.86 38.1 25.6L38.14 25.56ZM38.98 15.22C39.36 14.72 39.8 14.32 40.34 14.02C40.88 13.72 41.46 13.58 42.08 13.58C42.7 13.58 43.3 13.74 43.84 14.04C44.38 14.34 44.84 14.74 45.22 15.24C45.6 15.74 45.84 16.3 45.96 16.92H38.22C38.36 16.28 38.62 15.72 38.98 15.22Z" fill="white"/>
<path d="M54.02 26.66H57.86V14.5H60.9V10.7H57.86V5.79999H54.02V10.7H51.68V14.5H54.02V26.66Z" fill="white"/>
<path d="M70.52 26.66C71.82 26.66 73 26.36 74.1 25.78C75.18 25.18 76.1 24.4 76.82 23.42L73.36 21.56C73 21.96 72.58 22.26 72.08 22.5C71.58 22.74 71.06 22.86 70.52 22.86C69.98 22.86 69.08 22.66 68.48 22.26C67.88 21.86 67.38 21.32 67.04 20.66C66.68 20 66.5 19.28 66.5 18.48C66.5 17.68 66.68 16.96 67.04 16.3C67.4 15.64 67.88 15.1 68.48 14.68C69.08 14.28 69.78 14.06 70.52 14.06C71.26 14.06 71.56 14.18 72.06 14.4C72.56 14.62 73 14.96 73.36 15.36L76.82 13.52C76.1 12.52 75.2 11.74 74.1 11.14C73 10.54 71.82 10.26 70.52 10.26C69.22 10.26 68.42 10.48 67.46 10.9C66.5 11.32 65.66 11.92 64.96 12.66C64.24 13.42 63.68 14.28 63.26 15.28C62.84 16.26 62.64 17.34 62.64 18.48C62.64 19.62 63 21.36 63.7 22.6C64.4 23.84 65.36 24.84 66.54 25.56C67.74 26.3 69.04 26.66 70.5 26.66H70.52Z" fill="white"/>
<path d="M83.48 26.66V17.42C83.48 16.8 83.62 16.26 83.92 15.74C84.22 15.24 84.62 14.84 85.14 14.54C85.64 14.24 86.22 14.1 86.84 14.1C87.46 14.1 88.02 14.24 88.54 14.54C89.06 14.84 89.46 15.24 89.76 15.74C90.06 16.24 90.22 16.8 90.22 17.42V26.66H94.06V16.42C94.06 15.28 93.78 14.24 93.22 13.32C92.66 12.4 91.9 11.66 90.96 11.1C90.02 10.54 88.98 10.26 87.82 10.26C86.66 10.26 86.16 10.42 85.42 10.76C84.68 11.08 84.04 11.52 83.5 12.08V2.91998H79.64V26.68H83.5L83.48 26.66Z" fill="white"/>
</g>
<defs>
<clipPath id="clip0_9_126">
<rect width="160" height="64" fill="white"/>
</clipPath>
</defs>
</svg>
